<?xml version="1.0" encoding="UTF-8"?>
<!DOCTYPE svg PUBLIC "-//W3C//DTD SVG 1.0//EN" "http://www.w3.org/TR/2001/REC-SVG-20010904/DTD/svg10.dtd">
<!-- Creator: CorelDRAW X7 -->
<svg xmlns="http://www.w3.org/2000/svg" xml:space="preserve" width="2682px" height="1558px" version="1.0" style="shape-rendering:geometricPrecision; text-rendering:geometricPrecision; image-rendering:optimizeQuality; fill-rule:evenodd; clip-rule:evenodd"
viewBox="0 0 72054025 41870085"
 xmlns:xlink="http://www.w3.org/1999/xlink">
 <defs>
  <style type="text/css">
   <![CDATA[
    .fil0 {fill:#FEFEFE}
   ]]>
  </style>
 </defs>
 <g id="Layer_x0020_1">
  <metadata id="CorelCorpID_0Corel-Layer"/>
  <g id="_2297611128080">
   <path class="fil0" d="M36182645 41870085c310313,-78387 1452072,-744332 1857847,-947695 7501618,-3759552 15305203,-5763670 23729635,-6679597 1669685,-181529 3371677,-342969 5091632,-447920l5192266 -236495 -3017759 -6605049c-1463910,101269 -3594844,662326 -5061356,993140 -5784679,1304977 -12419211,3529024 -17565206,6321586 -674989,366263 -1266862,668705 -1917034,1066577l-3641749 2337692c-1176511,826338 -4018073,3160634 -4668244,4197729l-32 32z"/>
   <path class="fil0" d="M3019790 26910453c-526148,1572130 -2589008,5248851 -3019790,6648465 1757308,119453 3571835,135353 5331491,225356 9857210,504250 19917053,2724552 28702036,7116028 615104,307488 1248360,735922 1812909,931224 -467501,-854709 -2214082,-2239914 -3056255,-2943656 -5182016,-4330226 -13474110,-7903108 -20088870,-9770349 -2262415,-638620 -7484894,-1971778 -9681521,-2207036l0 -32z"/>
   <path class="fil0" d="M35630886 23666894c-131259,261090 -187876,136496 -375879,-5840 31609,-31704 156140,-63281 208377,-66010 267978,-14154 19010,-34751 167502,71850zm-24991452 -11299984c-112376,-192160 -108822,-163122 -206663,-303458l-1233731 -1581301c-262899,-306060 -52744,-273816 -494888,-386986l-425673 3122963 -909167 6398958c288415,154077 456393,203997 862135,179815l897584 -5335776c139416,271469 391874,509551 618627,828686l2837055 4020802c229038,329513 933351,1497042 1264641,1619320 215454,-288955 951122,-2436898 1130747,-2805351 668103,-1370353 1301708,-3285007 1919605,-4676908 249063,121548 241922,24024 496221,699108l2389009 5438504c651188,17582 1378477,-472324 2048230,-593142 -20406,523450 445,220945 -160170,382385l-115773 59727c22914,17327 184449,-87369 -7172,419769 -665373,1760577 -1548264,2743594 -320437,3115157 -418532,893649 -783684,1286760 -720530,2557336 584225,-379116 1004883,-1686727 1093395,-2374348 1157913,233735 954232,418152 1566416,-1413354 293208,-877337 569658,-1714020 853123,-2571713l1470891 -4498552c128340,-441700 59537,-433702 443191,-454426 -19486,-19422 -52237,-74484 -59251,-57505 -3300,7966 -122500,-89717 -114439,-212916 4443,-67565 117708,-172769 162932,-234559 204093,-279021 149507,-413391 307583,-696887 1936362,563882 2465937,801266 4676686,613834l223896 844173c-942617,156712 -1778919,204284 -2790911,124436l-2057433 -389049c-337543,-17010 -184354,-36845 -373150,115677 561057,24151 1698342,463502 2517380,574387 1126082,152427 1771780,57759 2880217,-32 514056,1936234 2012146,6046975 2787262,8281875 272642,786096 323419,411487 1309451,1419893l387526 315231c130911,77468 26785,20565 187876,97779 323293,-480290 288193,-867563 195715,-1455310 -77721,-493968 62932,-422626 30530,-745951l-2284725 -5773190c-251411,-637160 -911643,-2006338 -1022338,-2590944 275181,-220310 685113,-377149 1015261,-570451 2386851,-1397392 4799535,-5742153 4246126,-6872773 -287019,-586351 -1268608,-1322020 -1746105,239637 -639033,2089962 -2066795,4798615 -4211026,5513623 -239828,-324277 -825290,-1815987 -1052582,-2352704 -177657,-419484 -311297,-735763 -502854,-1165180l1168671 3725119 -664389 160615 -1921445 -4791633c331861,-109140 859945,-378323 1071274,-615707 982128,-1103486 933890,-2773457 -425482,-3441655l149317 224214c678416,827892 842776,1373907 239256,2391135 -1227161,2068605 -4843553,395746 -3456570,-1616273 507233,-735795 1552770,-1141189 2796751,-933351 -1308627,-1061753 -5095409,581464 -3154858,3244417 257187,352934 208091,-1238 129926,468008l251380 -70898c140431,21549 390921,322087 844521,445888 597269,162996 1053090,25548 1584158,-34052 125388,716499 484034,1711354 714532,2397736 203775,606948 654741,1844359 747219,2430964 -1399200,284734 -3470343,153570 -4597060,-445380 54617,-469976 702313,-2366890 922370,-3135023 61472,-214439 237764,-734812 292699,-1062643l-1194219 3059492c-397872,1083525 -197174,541128 -672514,909232 686668,471943 -199618,1328048 -588953,951249 -66963,-64773 -339669,-932335 648490,-1084191 -18217,-13488 -51539,-48048 -61346,-29419l-304949 -116312c-11869,-4125 -40305,-9108 -57918,-19327l1501104 -4186780c-884128,1391616 -3884623,9254864 -4264247,9648071 -19295,211963 5332,105966 -53570,258425 -60393,156298 -18819,59187 -100983,153315 -255220,-306314 -1147028,-2978121 -1430714,-3738924l-259504 -604155c-175182,-528401 -1667718,-5266750 -2086313,-5518129 -225325,154046 -16535,-28784 -142018,149349l-2334614 5478174c-162487,448173 -262074,713040 -447475,1145949 -147826,345000 -272516,759343 -454806,1125987 -231830,466389 -178006,763912 -573308,1035984 -370674,-140812 -1187808,-1392536 -1503103,-1774572l-240241 -293874c-122627,-165280 -103109,-146048 -226943,-292922 -189272,-224626 -332496,-420594 -485082,-663373 -231322,-368168 -1038300,-1197710 -1274351,-1610530 -81371,-142335 -7490,6252 -94954,-194509l-32 0zm21741386 2248610l3094687 8173085c-194223,177276 -365374,232147 -635573,318913 -56014,-63122 -2996306,-7912819 -3068410,-8335889l609296 -156109zm-9577394 4308709c-150174,-559756 519102,-1902880 750488,-2506051 307965,-802694 598157,-1640932 904852,-2375743l726623 76864 -3084087 8468291 -780542 -325927c74738,-411328 490128,-1320369 673275,-1781427 128562,-323705 218152,-544428 346841,-882573 230402,-605202 25738,-323293 462518,-673434l32 0zm9178570 -5541423l231291 772862 -645951 185908 -256774 -801646 671434 -157124zm391747 -180450c639287,-193494 1363498,-673784 1770415,-1032525 1369496,-1207612 2134488,-2526838 2752765,-4273863 244112,-689842 119232,-710978 402156,-957375 600696,165788 282767,599490 131260,1051693 -743888,2220207 -2586470,5330889 -4803407,5937487l-253189 -725417 0 0z"/>
   <path class="fil0" d="M42890328 12674526c-1939566,249538 -6150719,-1004312 -6217968,1876824 323896,-148365 255379,-174832 486161,-412819 434750,-448332 1395964,-443731 2083140,-382607 118438,1269432 -27832,3686115 -266898,4825558 -135385,645380 -266423,1133667 -734526,1546328 -138336,121929 9552,26595 -150460,112091 -243159,129958 -791237,156680 -1067339,17518 -489747,-246873 -43256,-510153 -513771,-729543 -355536,814246 427101,2805859 1808751,1994787 64424,-37829 212916,-137004 253030,-173531l228752 -314566c10885,-17486 24341,-39098 35068,-56521 10409,-16979 24881,-37480 34973,-54364l375181 -927257c196540,-781082 318818,-2057338 341890,-3003034l63852 -3102304c23358,-308376 2733502,-143668 2828582,-69469 372389,290478 -327735,4925463 404093,6966806 137289,382861 587493,756741 1018434,842903 2696307,539065 2678313,-2455876 2443975,-2878121 -174991,331131 -75880,1170353 -398792,1785933 -417136,795300 -1322559,662612 -1547089,496444 -140939,-186353 -31355,-18851 -159283,-291018 -468484,-996695 -263883,-4339239 -249538,-5430253l90510 -253855c9172,-66613 7966,-270262 8759,-348586 2539,-252141 7680,-504219 10568,-756550 332750,-93304 1381080,60107 1561403,-287654 861976,-43478 708978,-535256 1067625,-1282127 -63980,-102507 -126023,-185686 -208536,-267882 -295810,87400 -297968,136940 -422404,415136 -490700,21898 -887937,136115 -1509769,129165 -510343,-5744 -1209547,-34275 -1698405,12536l31 32z"/>
   <path class="fil0" d="M54223666 19347680l-77784 -1944358 -137670 -2875012 -794 -289113c-126467,-1801484 -208441,-3766630 -268421,-5589694 -62393,-1897548 -286289,-3907537 -278768,-5755704 -248809,418850 4031,236654 -532971,135353 -395778,-74706 -588128,43859 -796791,261948 107394,137956 198825,242874 541920,273944 274452,24849 465851,-42844 691302,-106157l40146 1561054c-536558,-271659 -853789,-380386 -1263499,115550 408758,374419 773244,205330 1257881,41923l-298411 1469495c-129546,-43541 -102602,-79181 -312947,-48714 -245128,35576 -368548,186828 -456933,381591 513105,349856 633606,118216 1104534,28309l2443 1280889c-691460,-189812 -762802,-168485 -1172638,249761 359313,233449 677052,210059 1178319,164899l16027 1450835c-544111,-238177 -1057597,-252141 -1192315,388510 498570,118533 842015,-83751 1185523,-235861l48112 1788853c-216629,23009 -319104,29420 -525069,107299 -316470,119613 -330751,202316 -418437,341478 372642,176673 434273,225356 941253,107648l34750 1353247c-502536,150269 -730527,-16535 -850012,439446 286098,213963 607836,281084 814532,48143l-47255 1267592c-14725,8125 -45128,26880 -63091,36306 -283115,148174 -539985,169533 -616214,568611l831161 29133 16026 1475272c-504916,172674 -486954,19422 -656931,439287 200507,146937 414565,147889 591714,259091 128308,225102 108759,475085 95113,802916 -15551,374102 -5872,412725 -386384,388923 -378418,53284 -607519,206790 -823513,367215 242652,131640 477719,205236 843443,204791 618849,-357758 473594,834398 392096,1270163l-559407 -444 -2404338 71754 -712342 -19732730 -168644 -171850c-80958,436019 8759,4401314 8886,5214386 825,4614325 234845,9585075 280100,14225328 13678,1409578 413169,1033731 2287963,983842l1474509 -58108c530941,-108568 394159,-693872 374197,-1453945 -12186,-463851 -52776,-860707 -30339,-1333127l-32 32z"/>
   <path class="fil0" d="M54007418 14239197l794 289113c640778,-127832 1380984,-407647 2132679,-556583 841316,-166708 1666575,-200697 2539722,-93462 2900496,356425 5903625,2315509 7629387,4578146l1195837 1613481c235925,382956 382734,530655 536019,889587l-940809 -1889011c-192414,-290573 -390922,-535193 -585907,-816849 -443730,-640841 -1524874,-1797643 -2102815,-2291548 -2241406,-1915225 -5451707,-3397701 -8515134,-2682597 -636049,148460 -1471907,506948 -1889804,959723l31 0z"/>
   <path class="fil0" d="M54145882 17403322l77784 1944358c748458,-3620486 5807846,-3335149 8361691,-1032747 797839,719356 1397709,1729825 1924397,2368952 -543286,-1663877 -2325474,-3381039 -4066692,-4178624 -2050102,-938999 -4749456,-904312 -6297180,898061l0 0z"/>
   <path class="fil0" d="M27514354 3796112l153411 -3105890 839730 55824c18121,441413 113329,2678693 379021,3112554 144208,-1132207 299396,-2304941 256235,-3495447 -494095,-295238 23294,-256838 -1335221,-348110 -333893,-22469 -415803,-43510 -590921,124880 -530115,509836 137543,3063142 297745,3656189l0 0z"/>
   <path class="fil0" d="M26834097 33149526c13837,-18217 27261,-45732 33957,-59727l146969 -392414c45224,-127451 98730,-244429 158647,-365787 893142,-1809005 -626782,-1777491 -1014562,-1467718l-114820 -249507c-337162,-828400 -1002408,-663088 -1170291,-508440l-77467 -130942c-131227,-254584 101015,-157981 -232338,-273372 -248967,121389 -378259,670419 -501997,935509 -81656,175023 -145540,342461 -223071,472958 -94731,159663 -46493,87687 -150110,199079l-201999 174960 472769 244334c165407,-256997 291176,-861120 512406,-1220147 103110,-167407 257663,-355822 467850,-416628 464898,-134370 565024,115233 720530,115233 256584,645252 -160425,1251153 -550045,1850039 -9140,14059 -31292,77817 -37830,63536 -6791,-14631 -26182,43224 -37956,65597 20407,15615 47509,34656 62774,44748l181053 116629c34465,20501 112472,54586 163915,84164l344112 -878162c81307,-157727 138209,-276895 210567,-394889 438018,-714120 2046040,-672292 441287,1768098l395650 222880 0 -31z"/>
   <path class="fil0" d="M5538504 26432766l516596 82862c-201364,-1919732 924623,-2335979 1317766,-1723287 257346,559852 -24056,1543091 -262138,1917606l640461 94794c-197587,-340303 -47096,-954804 55728,-1370098 149761,-605012 458678,-686319 1093204,-500062 287939,615770 7934,1522018 -206537,2081331l561851 49000c-90066,-670197 243477,-1436395 33069,-1913099 -244176,-553155 -1068418,-535161 -1391743,-57125 -101967,-99523 -21390,-12694 -145128,-160488 -638874,-763151 -1254009,-512501 -1461625,-55061 -236273,-477942 312884,-439954 -345063,-431195l-38337 432877c-50302,576735 -204982,1097456 -368104,1551913l0 32z"/>
   <path class="fil0" d="M53151725 29770327c-619166,-374578 -521673,-2096119 -1865463,-1338395 -311677,175785 -266168,207140 -431639,453124 -85687,127420 -66423,105046 -145731,187972 -62742,-282989 -224340,-1084064 -632558,-958644 -111234,273150 293683,915070 453346,1286570 198825,462549 452013,825099 431163,1382888 303077,-69596 331100,-55125 553822,-266485 -435892,-435289 -1041189,-1708816 -172040,-2032489 1040427,-387431 1264291,1670954 1302692,1533570 3173,-11552 13202,42177 23453,61599 92319,-36052 149380,-37766 251538,-100127 341001,-207869 66423,-10092 231386,-209583l31 0z"/>
   <path class="fil0" d="M34280463 38253280c-594316,-479020 -859596,197048 -500347,704091 207077,292287 527481,648173 878575,768483 -326784,-252395 -1494503,-1130366 -522880,-1390632 253157,-67819 52460,39892 278546,-85782 96540,484384 950868,537097 768134,1399391 -43605,14662 -258743,56617 -265090,58712 -241636,80482 -113773,10473 -263121,157346 539191,3142 407932,194287 853408,-145001 158012,-904312 -694666,-905740 -713390,-1584094 563438,131418 515548,650172 1363085,581305 380798,-132052 632908,-833858 190701,-1197741 231862,908216 -842618,1314307 -1228811,713421 -217867,-339034 -129895,-753789 162868,-952614 259409,-176229 591873,-193747 851440,23326 36941,30910 109394,188479 144398,171405l31831 -93240c-1191108,-963214 -1672953,-246016 -1426747,600442 -123674,-23643 -222151,-38527 -394381,-51127l-208187 322309 -32 0zm2301926 -616690c264550,235734 171025,234369 361789,496475l260170 -238241c-187590,-161979 -295111,-253632 -621959,-258234z"/>
   <path class="fil0" d="M46207039 31114149c-253030,-24881 -415898,-168676 -318025,120564 594761,126150 484797,1264895 -340557,1294822 -655027,23674 -669054,-499364 -629131,-1026749 -393207,191747 -778099,1237443 563248,1141442 -161885,180291 -170041,147476 -262551,427767l352014 169088c-845030,366771 -237860,1090348 795871,542842 14027,-7427 42462,-25611 53570,-31895l102665 -72516c-192573,57283 -281592,124214 -473022,155156 -868832,140368 -437542,-631257 -475403,-721831 404251,98571 893459,-580734 1481238,-336876 331163,298380 -207425,669277 -532813,903551 435321,-158076 1045283,-609899 753187,-1194537 -730559,-197238 -1045569,279022 -1721478,333544 133766,-254585 214280,-254839 437351,-369722 740016,-381052 742015,-1045061 213804,-1334650l32 0zm-378418 -414788l-91018 129641 -22787 4888 -83465 111837c-11298,13360 -28467,37892 -41352,51761 -342144,368707 -369055,57695 -670641,505298l125579 -73691c335987,-218438 304219,-251411 844109,-194414 317929,67407 449474,95366 0,0 -97873,-289208 64995,-145413 318025,-120532 -56268,-28563 -16789,-36655 -210885,-82513 -89654,-21200 -156521,-10949 -245318,-13044l54776 -165280 138908 -50016 342080 2856 -56045 -367913 -216058 69470 -104601 99428c-132370,-5078 -106473,-36845 -81275,92193l-32 31z"/>
   <path class="fil0" d="M12607023 24893896c172453,460074 -434590,2263938 -646871,2725187 229609,143255 122754,114376 572578,173245 -149444,-428909 2285,-791745 160329,-1126082 482226,67058 441192,315327 593048,796062 191144,604757 70326,605424 703487,709835 -327704,-857629 -343984,-1088602 -796188,-1490568 -101840,-90511 -84322,-76674 -154458,-165534l1218497 -438970c12186,-30244 45604,-21961 66264,-28531l-562168 -109552c-281402,333798 -642174,528973 -1109929,629956l436590 -1697041 -481179 22025 0 -32z"/>
   <path class="fil0" d="M29027455 6189374c-701679,1019418 -1304533,-239606 -423229,-738112 335416,118787 475180,301617 423229,738112zm-620943 -820815c-326594,134528 -394254,171468 -556012,503234 -9140,18725 -18470,42273 -27293,61441 -453409,985492 138876,1309071 897489,1076130 1298472,-398634 893332,-2138264 -314184,-1640805z"/>
   <path class="fil0" d="M58830565 27531270c146397,-156014 164138,28911 -68549,-369754 -974068,-1669178 1343726,-2181362 1442900,-496983 43225,734144 -326593,749060 -561914,936428 1503516,-214883 1025511,-2457653 -443286,-2058068 -421832,114757 -590159,308917 -729321,707392 -179371,-291430 -103427,-359599 -533098,-194446 221833,256585 873243,2190280 655503,2604845l683399 -171024c-235638,-270866 -353283,-556678 -445634,-958390l0 0z"/>
   <path class="fil0" d="M40344576 34222609c-858645,-252903 -1193457,675465 -1340839,944997l-558867 -988507 -304918 247539c16629,22120 38686,48747 51697,64995l703520 1096632c505996,811009 579433,1178890 579845,1177272 2634,-10536 11552,35227 19740,51793l318310 -188765c16154,-12980 41289,-38972 54395,-50333l105744 -116597c-306441,-144240 -228180,-135639 -402981,-393080 -270167,-397936 -792158,-1179145 -53221,-1572637 911199,-485177 1312022,1060674 1558609,1404119 89940,-57219 131958,-72992 230752,-145889 93303,-68867 104188,-88829 160932,-142811 -185655,-180894 -392033,-432210 -554012,-718531 -161789,-286257 -215201,-566104 -568770,-670197l64 0z"/>
   <path class="fil0" d="M56172817 28336376c212503,92700 -62202,43383 328720,124848l1189458 -481273c102253,-163535 146524,-329323 155633,-546110 36813,-873815 -877242,-1443346 -1685363,-880638 607741,-215327 962452,-2697 1194219,500125 149095,323388 179466,823100 -36084,1087999 -11107,13678 -28530,32942 -41193,45509 -12884,12790 -32434,29864 -46874,41511 -20279,16344 -86448,58679 -110662,71818 -1003646,546459 -1744836,-989237 -979558,-1729570 -309044,172325 -277340,195143 -401268,552647l-321198 -247222c-7744,-22405 -41352,793 -61123,6125 -68677,140748 -50111,-31006 -28785,182481l855947 2410367 383686 -187177c-145889,-259409 -332052,-551537 -395587,-951409l32 -31z"/>
   <path class="fil0" d="M42521653 33449270c-187305,-682193 266740,-986349 967657,-922973 302696,426022 695681,834653 781273,1497931 116343,-41637 239002,-105109 340049,-146334 191430,-78197 62424,-47127 245318,-74515 -814913,-759312 -603996,-1165562 -1083112,-1422082 -685145,-366803 -1290474,297555 -1371622,884762 -185813,-203775 -140019,-228497 -335194,-264898l-200190 149666c94922,192192 576767,810152 745824,1267878l223293 441953 460519 -224214 -773815 -1187174 0 0z"/>
   <path class="fil0" d="M64034510 24873236c-336654,-188003 -10727,31672 -192700,-150015 -58204,-58077 -58045,-101555 -94446,-125103l-374990 136781c341921,386955 369817,1300280 305616,1882315l605202 -73785c-338526,-489843 -614755,-1896787 279783,-2057116 890666,-159600 1038967,1241092 837603,1901578l639160 -91335c-429735,-700632 -88765,-2116780 -1330969,-1928808 -393207,59504 -559249,203807 -674259,505488z"/>
   <path class="fil0" d="M32576154 36496957c315581,-528465 997775,-1490346 1685300,-920625 392603,325324 151252,798378 -87687,1129351 -91177,126340 -286701,357250 -394984,479306l-494444 402410 413867 246524 303172 -426434c296413,-526370 1269751,-1222718 318469,-1893613 -337129,-237797 -569943,-138305 -933540,-86385l246777 -424467 -374038 -80958c-594317,1224019 -820371,969720 -1244393,1561847l326371 305426 235130 -292382 0 0z"/>
   <path class="fil0" d="M10063937 25555937c23072,-12726 52840,-29038 68517,-39162l395143 -248206c798442,-244429 919006,325895 931954,882129 -795775,16883 -1231889,-252966 -1774762,238844 -365216,625481 572102,1264355 1266545,882509 -1300661,108823 -1095711,-928621 -423610,-1066990 1325986,-272991 782320,808629 449855,1036461l243700 -74484c56045,382162 -37702,278767 256774,391112 127102,-196318 73374,-91558 109965,-463502 16090,-163281 38369,-302823 67788,-443349 78863,-376704 151697,-539446 74039,-964420 -323546,-449475 -861945,-623387 -1656705,-497078l-9171 366136 -32 0z"/>
   <path class="fil0" d="M22546492 31072987c-18914,-13043 -45763,-26880 -60234,-33259l-272484 -99682c-149031,-54522 -200824,-62107 -299586,-150333 -438177,-391366 -99651,-1348550 1269020,-742650 -57537,219136 -112472,377022 -218215,543889 -174516,275308 -82069,179942 -344017,293874 269215,146080 167248,249221 436527,509169l128561 -253760c445,-1491 29800,-177054 39131,-217326 50491,-218533 75340,-251983 159345,-450046 144525,-340779 273436,-579496 217295,-1009390 -250808,-419801 -835255,-719102 -1557784,-671657l-191 378228c369437,-446047 1500502,-426625 1203931,818752 -449697,-120818 -1521606,-607931 -1807673,-38178 -378767,754488 555314,986635 1106374,1122369l0 0z"/>
   <path class="fil0" d="M47432200 32328869c682289,40400 1599962,-493492 1719003,-953757 300697,-1162388 -1216053,-371499 -1575398,-382670 -454997,-14123 -485082,-459218 176864,-896982 -498824,228721 -960485,459662 -711010,1133191 631353,241447 992189,-172801 1621796,-129006 599902,794538 -460677,1194473 -1274923,882034l43668 347190 0 0z"/>
   <path class="fil0" d="M29385467 32744640c-153348,356996 -3142,300157 -434464,138876l230022 268675c-787208,1669781 -2127633,-25547 -1136143,-377592 286257,-101619 486066,-13139 716722,57664 86924,26689 -55538,11647 189399,51253 -2003070,-1261975 -1947564,1129763 -531575,1046425 221802,-13075 103205,4729 272643,-81783 104823,299618 -30530,337986 263502,521642l496920 -1074417c254934,-461312 376609,-722021 -5046,-1129858 -194192,-147477 -410598,-287590 -696824,-401839 -454806,-181466 -539350,-181371 -576068,253442 835064,-335638 854138,2793 1266005,298666l-55125 428846 32 0z"/>
   <path class="fil0" d="M31285903 35301659c-215804,44081 -546935,7331 -799806,-77404 -677719,-227102 -551632,-350173 -608535,-523800l2210591 -797553c-410884,-263217 -889333,-663056 -1386094,-953153l-354204 277815c381592,-30371 466739,-42653 798982,108759 311899,142113 357726,161218 476005,459915l-2288057 761184c96032,118628 1369146,971529 1552929,1046139 204600,-125769 228244,-190129 398189,-301871l0 -31z"/>
   <path class="fil0" d="M53609895 28686073c268168,-283941 456520,-539636 991047,-625704 412724,600061 312058,1294853 -526498,1331413l39892 90320c367501,-74579 464073,-163566 676735,-419040l161218 -199618c229831,212408 136083,278736 476418,105300 1809,-14567 286,-37544 -1492,-44113l-360899 -711073c-65376,-154490 -101618,-277911 -172326,-447253 -408218,-978257 -1641091,-168200 -1993295,199142l176515 243446c270738,-866832 1154327,-1142934 1522272,-234877 -208378,77467 -387177,188447 -578893,280259 -239542,114789 -763437,400919 -793364,681749l20374 159 0 31 0 64 -20374 -254c-126721,607328 757820,801361 887143,546078l-39892 -90352c-399776,-15931 -463121,-186606 -560518,-558201l5078 -12536 254 -380c16629,-19677 30180,-40591 40939,-61473 17169,-25547 36147,-53728 49698,-73087l-32 0zm-61345 -111933l-8410 7331c2729,-3141 5522,-5553 8410,-7331z"/>
   <path class="fil0" d="M51382612 3568979c287939,-439795 280894,-584003 225261,-1269179 -186797,184924 -128340,136337 -259314,372800 -240049,433480 -54331,231196 -373118,282164 -115328,-432560 -23548,-371056 328181,-580671 -1332968,-296507 -932716,1158802 78990,1194918l0 -32z"/>
   <path class="fil0" d="M61176763 25232930c1935,136242 38781,113423 -87909,93462l-62424 107203c27039,174960 74040,142494 -84639,142494 -753250,1558991 1966668,2132266 2173935,550141 -221611,403774 -254489,733700 -879114,785461 -582606,48239 -843855,-288669 -938460,-733383 -195651,-225197 -154712,-485336 -18819,-747601l101174 -166137 -88702 -49920 -115042 18280zm102570 197777c-135893,262265 -176832,522404 18819,747601l-65439 -291017 1131128 -303776c-488224,22152 -712755,177404 -1131572,165693l47032 -318501c105173,-122913 135448,-180418 253664,-270262 93907,-71406 12124,-29959 169914,-101047 222976,-100507 -77848,26436 241383,-79562 364676,55887 840999,312503 476069,594857 138654,1047 162075,27769 306504,-11933 327228,-90034 164773,-78102 243985,-139320 -202220,-389589 -450014,-550363 -1026527,-521737 -231703,32370 -283369,32529 -458138,110504 -196603,87781 -216978,133830 -309392,220723l-87909 93462 -62424 107203 -84639 142494c158679,0 111678,32466 84639,-142494l62424 -107203c126690,19961 89844,42748 87909,-93462l115042 -18280 88702 49889 -101174 166168 0 0z"/>
   <path class="fil0" d="M38065690 35490360c63281,-58712 117105,-74262 127800,-104189l-237955 161631 -366358 -212091c-15646,-40685 -48747,-37099 -42019,-44208l-214058 653948 314629 -93049c128308,340811 326974,619610 502600,924115 221040,383306 256077,602124 771943,435448 -149921,-322341 -572959,-541509 -1033858,-1512784l177244 -208821 32 0z"/>
   <path class="fil0" d="M29027455 6189374c51951,-436463 -87813,-619325 -423229,-738112 -881304,498506 -278450,1757530 423229,738112z"/>
   <path class="fil0" d="M31728046 36276837c65471,-741032 852202,-1234333 1087206,-1821319l-346650 -128371c-7871,14789 -17614,36877 -21263,45668 -3967,9489 -16884,37924 -21898,50206 -266644,651092 -547919,843696 -974068,1312974 -208060,229037 -45636,-7236 -169659,254585l446332 286257 0 0z"/>
   <path class="fil0" d="M14809489 28417112c-92509,-751949 226943,-1184984 331862,-1721351 86702,-443286 139415,-271469 -238050,-324594l-154966 576640c-167946,681748 -249888,808946 -496983,1362767l558137 106506 0 32z"/>
   <path class="fil0" d="M41853265 35180586c62583,145192 58267,118819 104411,185528l426561 -281782c-444777,-384512 -759375,-1077939 -1091680,-1627286l-285718 309138c275848,173627 362391,418310 548363,754266 90606,163756 121199,209297 201713,403933 28562,69121 68962,192795 96350,256203l0 0z"/>
   <path class="fil0" d="M16128462 26719118c-101269,-249221 200570,-112567 -259060,-172484l-147571 582670c-158108,623926 -323991,885588 -516850,1366830l511201 105744c-49889,-646142 173849,-910343 312598,-1412530 307520,-283560 306282,-418754 868292,-347983 897965,183560 169723,1635949 -96382,2145055l597205 89591c-142843,-195429 -75627,-317835 39701,-702378 65567,-218723 151698,-431797 180926,-679400 72104,-610946 -196127,-852837 -715452,-979590 -493175,-232496 -767626,364232 -774608,4475z"/>
   <polygon class="fil0" points="31310562,13539930 31567336,14341576 32213255,14155668 31981996,13382806 "/>
   <path class="fil0" d="M53113674 21602129l559407 445c81498,-435765 226753,-1627921 -392096,-1270163 -57283,469785 8156,946870 168454,1238808l-335765 30910z"/>
   <path class="fil0" d="M53261055 19760405c380513,23770 370833,-14853 386384,-388923 13646,-327831 33196,-577814 -95112,-802948l-291303 1191871 31 0z"/>
   <path class="fil0" d="M48208808 29902570c-117137,3999 -289653,111996 -361630,141256l627798 156458c-61091,-334940 101999,-310154 -266168,-297714z"/>
   <path class="fil0" d="M33000526 34107091c310122,30656 316184,-342970 -1460,-330973 -216470,8156 -214185,309646 1460,330973z"/>
   <path class="fil0" d="M41056061 33191671l-29546 -248587c-125610,-32910 176959,-121231 -187622,-19740 -171627,47731 -41130,2698 -137765,141003 145382,244080 59409,198920 354901,127324l32 0z"/>
   <path class="fil0" d="M15235860 25915916c-282576,95208 -147000,-63979 -200316,-141192 182227,-147382 -194128,-106474 219040,-126087 96,222 256584,174515 -18724,267279zm-184353 -256171c-207235,208314 60361,513993 288383,286669 167661,-167120 16344,-593015 -288383,-286669zm-15963 114979c53316,77213 -82260,236400 200284,141192 275309,-92764 18820,-267057 18725,-267279 -413169,19613 -36782,-21295 -219009,126087z"/>
   <path class="fil0" d="M35255007 23661054c188003,142304 244620,266930 375879,5840 -148492,-106601 100476,-86004 -167502,-71850 -52237,2729 -176768,34306 -208377,66010z"/>
   <path class="fil0" d="M18124074 29172139c-743285,-173754 -689080,550457 -145445,851440 313391,173531 756486,355219 1125003,311297 -403934,-85624 -1836933,-370199 -1074385,-1026147 198666,-170929 64551,13203 213773,-198126 297110,394571 1089744,71469 1299106,927670 -32910,32116 -208568,163280 -213360,167882 -182830,177308 -98001,58775 -168835,255886 487145,-231037 451791,-1904 706027,-500791 -249888,-883367 -1018815,-514819 -1329953,-1117863 564675,-125991 746553,362169 1480349,-67534 285845,-284162 208536,-1025860 -347761,-1161880 602885,717706 -189050,1549724 -797712,1175812 -343381,-210948 -444047,-622847 -266485,-928939 157282,-271341 449252,-431353 777305,-348301 46715,11774 180291,122342 204442,91749l-11742 -97778c-1491076,-351189 -1614084,504028 -1025067,1159912 -121707,32371 -216883,61631 -377529,125008l-47731 380703zm1806530 -1554199c340620,97651 255759,136972 541318,290383l131037 -327514c-239256,-64582 -375911,-100507 -672387,37131l32 0z"/>
  </g>
 </g>
</svg>
