<?xml version="1.0" encoding="UTF-8"?>
<!DOCTYPE svg PUBLIC "-//W3C//DTD SVG 1.0//EN" "http://www.w3.org/TR/2001/REC-SVG-20010904/DTD/svg10.dtd">
<!-- Creator: CorelDRAW X7 -->
<svg xmlns="http://www.w3.org/2000/svg" xml:space="preserve" width="1709px" height="993px" version="1.0" style="shape-rendering:geometricPrecision; text-rendering:geometricPrecision; image-rendering:optimizeQuality; fill-rule:evenodd; clip-rule:evenodd"
viewBox="0 0 22769797 13231357"
 xmlns:xlink="http://www.w3.org/1999/xlink">
 <defs>
  <style type="text/css">
   <![CDATA[
    .fil1 {fill:#015AA9}
    .fil0 {fill:#231F20}
    .fil5 {fill:#B0304A}
    .fil3 {fill:#C7212D}
    .fil2 {fill:#C81926}
    .fil4 {fill:white}
   ]]>
  </style>
 </defs>
 <g id="Layer_x0020_1">
  <metadata id="CorelCorpID_0Corel-Layer"/>
  <path class="fil0" d="M11434085 13231357c98058,-24766 458869,-235217 587090,-299477 2370595,-1188059 4836604,-1821378 7498808,-2110816 527629,-57368 1065486,-108380 1609007,-141549l1640807 -74739 -953644 -2087261c-462614,32004 -1136009,209302 -1599441,313843 -1828017,412388 -3924593,1115207 -5550782,1997683 -213299,115744 -400336,211316 -605799,337052l-1150830 738740c-371794,261132 -1269753,998787 -1475216,1326524z"/>
  <path class="fil0" d="M954289 8503967c-166267,496805 -818153,1658682 -954289,2100982 555322,37747 1128739,42767 1684801,71215 3114984,159344 6293992,860983 9070130,2248730 194386,97177 394499,232557 572898,294284 -147732,-270100 -699672,-707838 -965807,-930231 -1637565,-1368393 -4257947,-2497463 -6348276,-3087527 -714950,-201812 -2365308,-623107 -3059457,-697453z"/>
  <path class="fil1" d="M11259714 7478967c-41477,82512 -59367,43128 -118781,-1841 9992,-10023 49344,-19999 65850,-20865 84683,-4468 6010,-10982 52931,22706zm-7897539 -3570911c-35513,-60720 -34396,-51546 -65315,-95887l-389872 -499716c-83079,-96720 -16663,-86524 -156387,-122289l-134515 986891 -287314 2022136c91150,48683 144223,64465 272445,56817l283648 -1686153c44057,85785 123831,161028 195487,261871l896543 1270618c72379,104132 294946,473077 399644,511722 68084,-91308 300563,-770084 357318,-886521 211127,-433048 411350,-1038092 606617,-1477953 78704,38408 76454,7600 156811,220930l754947 1718630c205778,5554 435613,-149259 647260,-187447 -6451,165419 141,69831 -50619,120842l-36583 18882c7238,5476 58281,-27614 -2265,132643 -210262,556360 -489269,867009 -101268,984421 -132250,282405 -247648,406630 -227696,808146 184630,-119803 317556,-533026 345532,-750321 365909,73858 301539,132139 494996,-446628 92661,-277244 180020,-541648 269597,-812693l464816 -1421592c40564,-139582 18819,-137049 140054,-143594 -6152,-6137 -16505,-23539 -18724,-18174 -1038,2518 -38707,-28354 -36158,-67281 1400,-21352 37197,-54599 51484,-74126 64496,-88177 47251,-130629 97208,-220222 611904,178195 779258,253202 1477875,193977l70759 266765c-297873,49532 -562151,64559 -881958,39321l-650170 -122935c-106665,-5381 -58250,-11644 -117915,36551 177297,7632 536692,146474 795511,181515 355854,48164 559901,18252 910185,-16 162444,611873 635852,1910908 880793,2617156 86163,248419 102212,130031 413805,448705l122462 99616c41367,24483 8466,6498 59367,30902 102165,-151776 91072,-274160 61853,-459891 -24562,-156103 19888,-133556 9645,-235736l-721999 -1824383c-79444,-201356 -288085,-634027 -323063,-818767 86965,-69626 216508,-119190 320829,-180272 754271,-441592 1516708,-1814580 1341817,-2171866 -90694,-185291 -400887,-417770 -551782,75731 -201938,660445 -653128,1516409 -1330724,1742358 -75794,-102480 -260802,-573873 -332630,-743477 -56141,-132564 -98373,-232510 -158904,-368206l369307 1177171 -209947 50759 -607199 -1514205c104871,-34491 271753,-119552 338530,-194575 310366,-348711 295119,-876434 -134452,-1087593l47188 70853c214384,261620 266324,434166 75605,755624 -387795,653695 -1530617,125059 -1092313,-510762 160288,-232510 490684,-360622 883798,-294945 -413538,-335525 -1610203,183749 -996962,1025268 81270,111527 65755,-393 41052,147890l79444 -22406c44372,6813 123533,101787 266875,140903 188737,51515 332787,8072 500613,-10762 39620,226421 152956,540815 225792,757716 64402,191805 206910,582842 236129,768212 -442158,89971 -1096656,48526 -1452715,-140746 17261,-148519 221937,-747961 291484,-990699 19417,-67770 75133,-232212 92488,-335809l-377379 966830c-125735,342401 -62309,171004 -212528,287330 216997,149133 -63080,419674 -186109,300610 -21163,-20471 -107341,-294631 204928,-342622 -5759,-4264 -16285,-15183 -19385,-9299l-96375 -36756c-3744,-1306 -12729,-2879 -18299,-6105l474367 -1323062c-279399,439768 -1227584,2924627 -1347544,3048883 -6105,66982 1683,33483 -16931,81663 -19086,49391 -5947,18708 -31910,48447 -80655,-96800 -362478,-941120 -452118,-1181529l-82009 -190924c-55355,-166976 -527016,-1664346 -659297,-1743790 -71199,48683 -5224,-9094 -44875,47204l-737765 1731155c-51342,141627 -82811,225336 -141407,362132 -46716,109026 -86116,239953 -143720,355823 -73261,147386 -56251,241401 -181169,327375 -117144,-44498 -375365,-440050 -474997,-560782l-75919 -92866c-38754,-52223 -32587,-46150 -71719,-92567 -59807,-70979 -105075,-132910 -153286,-209632 -73103,-116342 -328114,-378481 -402712,-508937 -25711,-44985 -2360,1967 -30006,-61475zm6870493 710592l977954 2582775c-61381,56016 -115461,73355 -200853,100781 -17701,-19952 -946862,-2500531 -969646,-2634228l192545 -49328zm-3026556 1361595c-47455,-176888 164050,-601330 237168,-791939 97319,-253658 189020,-518550 285946,-750762l229615 24294 -974603 2676067 -246656 -102999c23618,-129984 154892,-417251 212764,-562954 40627,-102290 68933,-172042 109607,-278896 72805,-191254 8135,-102165 146159,-212811zm2900521 -1751153l73088 244233 -204126 58753 -81143 -253328 212181 -49658zm123800 -57023c202017,-61144 430877,-212920 559461,-326288 432781,-381612 674527,-798501 869904,-1350582 77147,-218003 37685,-224675 127089,-302545 189822,52396 89357,189444 41476,332346 -235075,701607 -817351,1684612 -1517919,1876307l-80011 -229238z"/>
  <path class="fil1" d="M13553775 4005265c-612927,78862 -1943683,-317368 -1964940,593101 102354,-46890 80703,-55245 153633,-130456 137379,-141675 441136,-140227 658289,-120905 37433,401154 -8795,1164850 -84337,1524921 -42783,203952 -84196,358246 -232117,488655 -43711,38534 3021,8402 -47550,35418 -76833,41068 -250039,49517 -337288,5539 -154766,-78012 -13673,-161217 -162365,-230544 -112346,257309 134971,886678 571591,630377 20361,-11959 67282,-43302 79964,-54836l72285 -99411c3445,-5523 7694,-12352 11077,-17859 3288,-5365 7867,-11848 11061,-17182l118561 -293026c62104,-246829 100748,-650139 108034,-948987l20187 -980361c7380,-97445 863815,-45395 893853,-21950 117679,91796 -103566,1556501 127702,2201589 43380,120983 185653,239135 321836,266356 852061,170358 846381,-776079 772318,-909509 -55291,104635 -23979,369842 -126018,564370 -131825,251329 -417943,209396 -488891,156889 -44545,-58894 -9913,-5963 -50335,-91968 -148047,-314960 -83393,-1371242 -78862,-1716019l28606 -80215c2895,-21053 2517,-85407 2769,-110158 802,-79680 2423,-159344 3336,-239072 105154,-29486 436431,18992 493422,-90899 272398,-13736 224045,-169147 337382,-405166 -20219,-32398 -39825,-58675 -65897,-84653 -93479,27615 -94172,43271 -133493,131180 -155064,6923 -280595,43018 -477105,40816 -161264,-1810 -382225,-10826 -536708,3965z"/>
  <path class="fil0" d="M2616086 4177055l134515 -986891c139724,35765 73308,25569 156387,122289l389872 499716c30919,44341 29802,35167 65315,95887 27646,63442 4295,16490 30006,61475 74598,130456 329609,392595 402712,508937 48211,76722 93479,138653 153286,209632 39132,46417 32965,40344 71719,92567l75919 92866c99632,120732 357853,516284 474997,560782 124918,-85974 107908,-179989 181169,-327375 57604,-115870 97004,-246797 143720,-355823 58596,-136796 90065,-220505 141407,-362132l737765 -1731155c39651,-56298 -26324,1479 44875,-47204 132281,79444 603942,1576814 659297,1743790l82009 190924c89640,240409 371463,1084729 452118,1181529 25963,-29739 12824,944 31910,-48447 18614,-48180 10826,-14681 16931,-81663 -52979,-232542 -212528,-590662 -298171,-836799l-845611 -2319520c-33750,-96343 -37071,-140478 -97035,-214337l-628126 1519241c-48133,113195 -563851,1422300 -655631,1510226l-1592674 -2033150c-72411,-86289 -153098,-214557 -225934,-298927 -4579,6326 -10039,8717 -11549,20377l-254114 1641924c-76140,521052 -212811,1195359 -243242,1708371 128993,33342 366381,132517 483840,112455 45158,-262831 187321,-1395692 267441,-1531467l1135663 1606994c93841,134814 210702,250668 270887,395127 33232,-31689 16490,-7757 45316,-53371l101362 -235154c43506,-105501 78972,-193033 119096,-296000 82418,-211458 161641,-396686 241353,-591575 81018,-198052 423214,-1091951 500802,-1187335l821536 1848882 615066 -221292 36583 -18882c50760,-51011 44168,44577 50619,-120842 -211647,38188 -441482,193001 -647260,187447l-754947 -1718630c-80357,-213330 -78107,-182522 -156811,-220930 -195267,439861 -395490,1044905 -606617,1477953 -56755,116437 -289234,795213 -357318,886521 -104698,-38645 -327265,-407590 -399644,-511722l-896543 -1270618c-71656,-100843 -151430,-176086 -195487,-261871l-283648 1686153c-128222,7648 -181295,-8134 -272445,-56817l287314 -2022136z"/>
  <path class="fil0" d="M14429596 4319123c-56991,109891 -388268,61413 -493422,90899 -913,79728 -2534,159392 -3336,239072 -252,24751 126,89105 -2769,110158l-28606 80215c-4531,344777 -69185,1401059 78862,1716019 40422,86005 5790,33074 50335,91968 70948,52507 357066,94440 488891,-156889 102039,-194528 70727,-459735 126018,-564370 74063,133430 79743,1079867 -772318,909509 -136183,-27221 -278456,-145373 -321836,-266356 -231268,-645088 -10023,-2109793 -127702,-2201589 -30038,-23445 -886473,-75495 -893853,21950l-20187 980361c-7286,298848 -45930,702158 -108034,948987l-118561 293026c-3194,5334 -7773,11817 -11061,17182 -3383,5507 -7632,12336 -11077,17859l-72285 99411c-12682,11534 -59603,42877 -79964,54836 -436620,256301 -683937,-373068 -571591,-630377 148692,69327 7599,152532 162365,230544 87249,43978 260455,35529 337288,-5539 50571,-27016 3839,3116 47550,-35418 147921,-130409 189334,-284703 232117,-488655 75542,-360071 121770,-1123767 84337,-1524921 -217153,-19322 -520910,-20770 -658289,120905 -72930,75211 -51279,83566 -153633,130456 21257,-910469 1352013,-514239 1964940,-593101 154483,-14791 375444,-5775 536708,-3965 196510,2202 322041,-33893 477105,-40816 39321,-87909 40014,-103565 133493,-131180 26072,25978 45678,52255 65897,84653 -113337,236019 -64984,391430 -337382,405166zm-2981224 466910l269912 -70791c42877,-86933 47361,-126789 160886,-197327 116138,-72144 271895,-73937 423482,-75574 2533,376246 -14948,798501 -59744,1166455 -40627,333716 -95273,772020 -485870,699152 -94864,-130597 -59430,-131510 -92378,-316029l-255326 -945c-59476,329484 40973,751187 242361,901626 123658,92362 340198,102086 494382,29660 127340,-59823 227334,-191192 284844,-325471 225445,-526449 191317,-1524843 207445,-2153787l705525 17434c72190,619378 -169635,1873427 196274,2320779 180255,220379 719764,263916 978426,44167 234996,-199641 287031,-618009 280658,-1016646l-274789 189c-1967,168691 -14665,355917 -63238,514522 -56267,183781 -115586,283003 -348616,235453 -190295,-112219 -101158,-1993624 -69594,-2034141 61774,-64213 -41162,-7175 53844,-32099 215942,-56660 724925,100608 725334,-768809l-232132 -1778 -36049 86981c-45441,80986 -100371,95053 -299209,105957 -1383986,75919 -2785265,-483053 -2806428,871022z"/>
  <path class="fil1" d="M17135228 6114051l-24578 -614437 -43506 -908533 -252 -91356c-39966,-569294 -65865,-1190293 -84825,-1766400 -19716,-599647 -90474,-1234822 -88098,-1818860 -78626,132360 1274,74787 -168424,42767 -125074,-23602 -185857,13862 -251801,82780 33940,43600 62828,76753 171256,86571 86729,7852 147213,-13531 218459,-33546l12682 493312c-169556,-85848 -269801,-120212 -399282,36505 129182,118324 244359,64889 397504,13248l-94297 464376c-40942,-13752 -32429,-25018 -98892,-15388 -77462,11234 -116468,59036 -144397,120590 162145,110551 200223,37354 349041,8937l771 404773c-218507,-59980 -241054,-53246 -370566,78925 113541,73780 213959,66385 372360,52113l5066 458476c-171948,-75259 -334203,-79680 -376781,122777 157551,37464 266088,-26466 374641,-74535l15200 565298c-68461,7269 -100843,9299 -165922,33908 -100009,37795 -104525,63930 -132233,107908 117758,55827 137237,71215 297447,34019l10983 427635c-158810,47487 -230859,-5224 -268622,138874 90411,67612 192089,88822 257403,15215l-14932 400572c-4658,2565 -14256,8497 -19936,11471 -89467,46826 -170642,53576 -194732,179689l262658 9205 5067 466201c-159565,54568 -153885,6137 -207603,138827 63364,46433 131007,46732 186991,81867 40548,71137 34364,150140 30053,253737 -4909,118214 -1857,130424 -122101,122903 -119583,16836 -191978,65346 -260235,116043 76675,41602 150958,64858 266529,64716 195566,-113053 149668,263681 123910,401391l-176778 -142 -759794 22674 -225115 -6235743 -53293 -54300c-25585,137788 2769,1390862 2816,1647793 252,1458175 74205,3028978 88507,4495351 4327,445432 130566,326667 723022,310901l465965 -18363c167779,-34317 124556,-219277 118246,-459466 -3855,-146584 -16679,-271989 -9582,-421279z"/>
  <path class="fil2" d="M17066892 4499725l252 91356c202489,-40391 436400,-128820 673945,-175882 265868,-52680 526654,-63426 802576,-29534 916590,112628 1865608,731723 2410970,1446736l377898 509880c74551,121015 120952,167684 169384,281115l-297306 -596940c-60799,-91827 -123533,-169131 -185149,-258127 -140227,-202520 -481873,-568082 -664505,-724154 -708310,-605233 -1722800,-1073715 -2690873,-847735 -200994,46921 -465131,160210 -597192,303285z"/>
  <path class="fil2" d="M17110650 5499614l24578 614437c236523,-1144112 1835334,-1053937 2642378,-326352 252132,227318 441687,546636 608128,748606 -171681,-525804 -734870,-1068444 -1285110,-1320481 -647858,-296739 -1500879,-285772 -1989974,283790z"/>
  <path class="fil1" d="M8694813 1199608l48478 -981495 265364 17639c5728,139487 35812,846491 119772,983603 45568,-357790 94613,-728387 80971,-1104602 -156135,-93291 7364,-81160 -421940,-110001 -105516,-7096 -131400,-13752 -186739,39462 -167526,161107 43459,967979 94094,1155394z"/>
  <path class="fil3" d="M8479846 10475579c4374,-5759 8623,-14460 10731,-18882l46449 -124004c14287,-40281 31201,-77242 50130,-115587 282248,-571670 -198067,-561710 -320609,-463825l-36284 -78846c-106554,-261777 -316769,-209538 -369826,-160667l-24483 -41382c-41461,-80451 31925,-49926 -73418,-86383 -78673,38361 -119536,211851 -158637,295622 -25804,55308 -45992,108223 -70491,149464 -29943,50445 -14696,27708 -47440,62907l-63835 55291 149400 77210c52271,-81207 92016,-272115 161925,-385577 32587,-52900 81427,-112440 147843,-131652 146914,-42468 178556,36410 227696,36410 81080,203905 -50697,395380 -173821,584636 -2879,4437 -9881,24593 -11958,20077 -2140,-4626 -8276,13658 -11990,20723 6451,4940 15011,10951 19842,14145l57211 36851c10888,6482 35544,17261 51798,26607l108742 -277512c25695,-49847 43679,-87500 66542,-124791 138417,-225666 646567,-212449 139456,558737l125027 70428z"/>
  <path class="fil3" d="M1750225 8353009l163247 26183c-63631,-606649 292192,-738190 416433,-544576 81316,176920 -7600,487632 -82843,605988l202394 29959c-62435,-107547 -14885,-301728 17607,-432970 47330,-191191 144948,-216886 345470,-158023 90993,194590 2502,480976 -65267,657723l177549 15483c-28464,-211788 76942,-453912 10448,-604556 -77163,-174796 -337634,-169115 -439799,-18047 -32224,-31454 -6765,-4013 -45866,-50713 -201891,-241165 -396277,-161957 -461890,-17403 -74661,-151036 98876,-139031 -109041,-136261l-12116 136796c-15892,182255 -64779,346807 -116326,490417z"/>
  <path class="fil3" d="M16796477 9407717c-195660,-118372 -164852,-662396 -589498,-422947 -98499,55543 -84117,65456 -136403,143185 -27080,40265 -20990,33200 -46056,59399 -19825,-89420 -70900,-342575 -199892,-302939 -35151,86320 92803,289171 143263,406567 62829,146174 142839,260738 136247,437013 95776,-21997 104635,-17418 175016,-84211 -137741,-137553 -329027,-539997 -54363,-642288 328790,-122431 399533,528038 411665,484627 1007,-3651 4169,13327 7411,19463 29172,-11392 47204,-11942 79491,-31642 107751,-65692 20990,-3194 73119,-66227z"/>
  <path class="fil3" d="M10832975 12088409c-187808,-151367 -271643,62278 -158117,222504 65440,92362 166692,204833 277637,242848 -103266,-79759 -472275,-357208 -165229,-439452 79995,-21431 16569,12603 88019,-27111 30510,153066 300485,169729 242739,442221 -13784,4626 -81773,17891 -83772,18552 -76360,25427 -35953,3304 -83157,49721 170390,991 128914,61397 269691,-45819 49926,-285773 -219529,-286229 -225445,-500597 178053,41539 162916,205462 430751,183701 120338,-41728 200003,-263507 60263,-378496 73277,287000 -266277,415331 -388314,225446 -68855,-107137 -41052,-238207 51468,-301035 81977,-55685 187037,-61224 269062,7379 11675,9772 34569,59556 45630,54159l10054 -29455c-376403,-304387 -528667,-77745 -450859,189744 -39085,-7474 -70208,-12179 -124634,-16160l-65787 101850zm727428 -194873c83598,74488 54048,74063 114327,156890l82214 -75290c-59273,-51185 -93259,-80152 -196541,-81600z"/>
  <path class="fil3" d="M14601890 9832379c-79963,-7868 -131431,-53309 -100497,38093 187950,39872 153192,399723 -107625,409179 -206989,7490 -211426,-157802 -198807,-324463 -124256,60594 -245885,391052 177990,360716 -51153,56975 -53734,46606 -82969,135176l111244 53435c-267032,115901 -75164,344557 251503,171539 4437,-2345 13421,-8088 16930,-10071l32445 -22925c-60862,18111 -88995,39258 -149479,49029 -274569,44356 -138276,-199483 -150234,-228105 127749,31155 282342,-183513 468089,-106460 104651,94297 -65550,211505 -168376,285536 137568,-49957 330317,-192733 238017,-377489 -230858,-62325 -330411,88177 -544008,105406 42278,-80451 67721,-80530 138212,-116830 233848,-120417 234478,-330254 67565,-421766zm-119583 -131085l-28763 40973 -7207 1542 -26371 35340c-3572,4232 -9000,11974 -13075,16364 -108113,116514 -116625,18236 -211930,159675l39683 -23288c106177,-69028 96138,-79444 266749,-61428 100465,21305 142036,30132 0,0 -30934,-91402 20534,-45961 100497,-38093 -17780,-9032 -5303,-11581 -66636,-26073 -28338,-6702 -49470,-3461 -77525,-4122l17308 -52239 43900 -15798 108097 897 -17717 -116263 -68273 21950 -33058 31422c-41823,-1605 -33641,-11644 -25679,29141z"/>
  <path class="fil3" d="M3983944 7866715c54505,145388 -137332,715422 -204408,861187 72552,45269 38786,36143 180932,54741 -47219,-135538 724,-250196 50666,-355854 152390,21194 139424,99647 187415,251565 60405,191113 22217,191317 222314,224313 -103565,-271013 -108710,-344006 -251612,-471032 -32177,-28605 -26639,-24231 -48809,-52317l385058 -138717c3855,-9551 14413,-6939 20943,-9016l-177660 -34616c-88916,105485 -202929,167165 -350741,199074l137962 -536283 -152060 6955z"/>
  <path class="fil1" d="M9172972 1955893c-221732,322150 -412247,-75715 -133744,-233250 105988,37542 150155,95320 133744,233250zm-196226 -259386c-103204,42515 -124587,54190 -175709,159030 -2879,5916 -5838,13359 -8623,19417 -143279,311419 43884,413679 283617,340072 410328,-125971 282295,-675723 -99285,-518519z"/>
  <path class="fil3" d="M18591058 8700147c46260,-49297 51861,9141 -21666,-116846 -307817,-527472 424630,-689334 455973,-157047 13658,231991 -103203,236712 -177565,295921 475123,-67911 324070,-776645 -140085,-650375 -133304,36268 -186503,97618 -230481,223542 -56676,-92095 -32681,-113636 -168455,-61444 70098,81081 275954,692151 207146,823157l215958 -54048c-74456,-85597 -111637,-175913 -140825,-302860z"/>
  <path class="fil3" d="M12749295 10814676c-271344,-79916 -377143,213456 -423718,298627l-176605 -312379 -96359 78232c5255,6986 12226,15404 16333,20534l222330 346555c159895,256286 183104,372533 183230,372029 834,-3335 3650,11125 6246,16365l100592 -59650c5098,-4107 13044,-12321 17182,-15908l33420 -36851c-96846,-45583 -72112,-42861 -127340,-124209 -85376,-125751 -250338,-372627 -16820,-496978 287943,-153318 414607,335179 492541,443716 28416,-18079 41696,-23066 72914,-46102 29487,-21761 32932,-28071 50854,-45127 -58658,-57164 -123879,-136576 -175063,-227066 -51138,-90459 -68005,-178887 -179737,-211788z"/>
  <path class="fil3" d="M17751175 8954575c67156,29283 -19652,13705 103880,39447l375885 -152091c32319,-51672 46307,-104069 49186,-172577 11628,-276127 -277228,-456115 -532601,-278283 192057,-68052 304150,-849 377395,158039 47109,102196 56707,260109 -11408,343817 -3509,4327 -9016,10417 -13012,14382 -4076,4043 -10259,9440 -14822,13122 -6404,5161 -27316,18536 -34963,22690 -317163,172687 -551388,-312600 -309547,-546558 -97665,54457 -87642,61664 -126805,174638l-101504 -78122c-2455,-7081 -13076,252 -19322,1935 -21699,44482 -15830,-9802 -9095,57668l270494 761697 121251 -59146c-46103,-81978 -104934,-174293 -125012,-300658z"/>
  <path class="fil3" d="M13437276 10570301c-59194,-215580 84290,-311703 305787,-291673 95650,134626 219844,263760 246892,473361 36756,-13154 75526,-33216 107451,-46244 60500,-24703 19732,-14885 77525,-23539 -257513,-239953 -190861,-368332 -342275,-449397 -216509,-115917 -407795,94030 -433442,279589 -58722,-64386 -44246,-72206 -105926,-83708l-63269 47298c30006,60736 182270,256018 235689,400666l70570 139661 145530 -70853 -244532 -375161z"/>
  <path class="fil3" d="M20235547 7860185c-106382,-59414 -3383,10007 -60893,-47408 -18394,-18347 -18347,-32083 -29849,-39526l-118497 43223c108049,122274 116861,410894 96579,594832l191254 -23319c-106979,-154797 -194275,-599410 88413,-650076 281461,-50429 328319,392202 264688,600921l201985 -28857c-135805,-221418 -28054,-668926 -420602,-609528 -124256,18803 -176731,64402 -213078,159738z"/>
  <path class="fil3" d="M10294395 11533402c99726,-167007 315306,-470969 532569,-290933 124068,102810 47802,252304 -27708,356892 -28810,39919 -90600,112896 -124823,151462l-156245 127167 130786 77902 95808 -134751c93669,-166346 401249,-386395 100639,-598404 -106539,-75148 -180114,-43710 -295008,-27299l77980 -134138 -118198 -25584c-187809,386804 -259244,306447 -393240,493563l103141 96517 74299 -92394z"/>
  <path class="fil3" d="M3180314 8075922c7285,-4012 16694,-9173 21651,-12367l124870 -78437c252320,-77241 290414,102983 294505,278755 -251471,5334 -389291,-79932 -560845,75479 -115414,197658 180791,399549 400242,278880 -411020,34396 -346257,-293451 -133871,-337177 419029,-86273 247223,255530 142163,327532l77005 -23539c17717,120763 -11911,88098 81143,123595 40171,-62041 23193,-28936 34758,-146473 5082,-51594 12116,-95698 21415,-140101 24924,-119049 47943,-170469 23397,-304764 -102243,-142037 -272382,-196998 -523538,-157079l-2895 115696z"/>
  <path class="fil3" d="M7124922 9819366c-5979,-4122 -14460,-8496 -19039,-10511l-86100 -31500c-47094,-17230 -63458,-19621 -94675,-47503 -138465,-123674 -31485,-426157 401028,-234682 -18189,69248 -35544,119143 -68965,171869 -55150,86997 -25930,56865 -108710,92866 85077,46165 52852,78752 137945,160902l40627 -80183c142,-472 9425,-55953 12367,-68682 15955,-69059 23807,-79633 50351,-142225 45678,-107688 86415,-183120 68666,-318973 -79255,-132658 -263948,-227239 -492273,-212244l-63 119520c116751,-140950 474178,-134814 380463,258740 -142115,-38187 -480850,-192119 -571246,-12068 -119693,238427 175489,311782 349624,354674z"/>
  <path class="fil3" d="M14989056 10216241c215612,12760 505601,-155946 543222,-301397 95022,-367325 -384286,-117396 -497843,-120921 -143783,-4468 -153287,-145120 55889,-283459 -157629,72285 -303521,145262 -224690,358104 199515,76298 313544,-54614 512508,-40768 189571,251077 -145577,377458 -402885,278723l13799 109718z"/>
  <path class="fil3" d="M9286104 10347625c-48463,112817 -991,94848 -137300,43884l72694 84904c-248765,527676 -672357,-8072 -359033,-119316 90458,-32114 153601,-4154 226484,18221 27473,8433 -17544,3682 59855,16191 -632989,-398794 -615444,357018 -167983,330679 70098,-4123 32618,1494 86163,-25837 33121,94676 -9646,106807 83267,164836l157032 -339522c80561,-145781 119017,-228167 -1589,-357050 -61365,-46606 -129748,-90883 -220206,-126978 -143721,-57353 -170438,-57321 -182034,80089 263885,-106067 269911,881 400068,94376l-17418 135523z"/>
  <path class="fil3" d="M9886663 11155676c-68194,13926 -172845,2313 -252745,-24467 -214164,-71765 -174324,-110661 -192309,-165528l698570 -252037c-129842,-83174 -281036,-209538 -438020,-301208l-111936 87799c120590,-9598 147496,-13485 252493,34364 98562,44907 113038,50949 150423,145341l-723053 240535c30352,37496 432671,307014 490747,330601 64654,-39746 72128,-60091 125830,-95400z"/>
  <path class="fil3" d="M16941267 9065080c84747,-89735 144271,-170532 313182,-197737 130424,189633 98609,409194 -166378,420744l12603 28542c116138,-23570 146647,-51688 213850,-132422l50948 -63081c72631,67124 43003,88083 150549,33279 567,-4610 95,-11864 -472,-13941l-114044 -224706c-20660,-48824 -32115,-87831 -54458,-141344 -128992,-309138 -518597,-53152 -629904,62938l55779 76927c85565,-273924 364776,-361173 481055,-74220 -65850,24483 -122353,59555 -182931,88570 -75699,36268 -241259,126695 -250715,215439l6435 47 0 15 0 16 -6435 -78c-40045,191915 239481,253233 280343,172561l-12603 -28542c-126333,-5036 -146348,-58974 -177125,-176401l1605 -3965 79 -126c5255,-6215 9535,-12824 12934,-19417 5428,-8072 11423,-16978 15703,-23098zm-19385 -35372l-2659 2313c865,-991 1746,-1746 2659,-2313z"/>
  <path class="fil1" d="M16237426 1127826c90993,-138983 88759,-184551 71183,-401075 -59036,58438 -40564,43081 -81946,117805 -75857,136986 -17166,73056 -117915,89168 -36442,-136687 -7443,-117254 103707,-183497 -421232,-93700 -294741,366192 24971,377599z"/>
  <path class="fil3" d="M19332474 7973852c613,43050 12257,35843 -27772,29534l-19731 33877c8544,55291 23397,45032 -26749,45032 -238033,492651 621486,673820 686989,173852 -70034,127592 -80419,231850 -277810,248214 -184111,15246 -266671,-91230 -296566,-231756 -61822,-71167 -48888,-153381 -5948,-236255l31973 -52507 -28024 -15766 -36362 5775zm32413 62498c-42940,82874 -55874,165088 5948,236255l-20676 -91969 357444 -95997c-154278,7002 -225241,56063 -357585,52365l14869 -100654c33232,-38833 42798,-57007 80152,-85408 29676,-22563 3839,-9456 53702,-31925 70460,-31768 -24608,8355 76282,-25144 115240,17654 265758,98750 150439,187981 43821,331 51216,8780 96862,-3776 103408,-28448 52066,-24672 77100,-44025 -63914,-123108 -142210,-173915 -324401,-164868 -73213,10228 -89546,10275 -144774,34915 -62136,27741 -68572,42295 -97775,69752l-27772 29534 -19731 33877 -26749 45032c50146,0 35293,10259 26749,-45032l19731 -33877c40029,6309 28385,13516 27772,-29534l36362 -5775 28024 15766 -31973 52507z"/>
  <path class="fil3" d="M12029137 11215295c19999,-18551 37008,-23460 40391,-32917l-75196 51075 -115775 -67030c-4941,-12855 -15405,-11722 -13280,-13972l-67644 206658 99428 -29408c40548,107704 103329,195802 158825,292035 69862,121125 80923,190279 243950,137599 -47377,-101866 -181059,-171114 -326714,-478049l56015 -65991z"/>
  <path class="fil4" d="M9172972 1955893c16411,-137930 -27756,-195708 -133744,-233250 -278503,157535 -87988,555400 133744,233250z"/>
  <path class="fil3" d="M10026387 11463839c20691,-234178 269298,-390061 343565,-575557l-109544 -40564c-2486,4674 -5570,11660 -6719,14429 -1259,3005 -5334,11990 -6923,15876 -84259,205746 -173144,266608 -307817,414907 -65739,72379 -14413,-2282 -53608,80451l141046 90458z"/>
  <path class="fil3" d="M4679950 8980081c-29235,-237624 71718,-374468 104871,-543961 27394,-140086 44057,-85786 -75227,-102574l-48966 182222c-53073,215439 -78973,255641 -157048,430657l176370 33656z"/>
  <path class="fil3" d="M13226054 11117410c19779,45882 18410,37543 32996,58627l134798 -89042c-140557,-121503 -239968,-340639 -344981,-514239l-90286 97696c87170,54867 114517,132187 173286,238348 28637,51751 38298,66149 63741,127655 9031,21840 21792,60925 30446,80955z"/>
  <path class="fil3" d="M5096760 8443499c-32004,-78752 63379,-35576 -81867,-54505l-46638 184127c-49957,197171 -102385,279856 -163325,431931l161547 33420c-15766,-204188 54930,-287676 98782,-446375 97177,-89609 96784,-132328 274381,-109969 283774,58013 53639,516976 -30447,677863l188721 28307c-45142,-61759 -23901,-100435 12541,-221953 20722,-69122 47943,-136451 57179,-214699 22784,-193064 -61978,-269503 -226090,-309563 -155852,-73465 -242581,115099 -244784,1416z"/>
  <polygon class="fil4" points="9894452,4278748 9975595,4532076 10179721,4473323 10106633,4229090 "/>
  <path class="fil5" d="M16784456 6826483l176778 142c25758,-137710 71656,-514444 -123910,-401391 -18095,148457 2580,299226 53230,391478l-106098 9771z"/>
  <path class="fil2" d="M16831030 6244475c120244,7521 117192,-4689 122101,-122903 4311,-103597 10495,-182600 -30053,-253737l-92048 376640z"/>
  <path class="fil3" d="M15234469 9449508c-37008,1259 -91528,35387 -114280,44639l198397 49438c-19306,-105846 32225,-98011 -84117,-94077z"/>
  <path class="fil3" d="M10428501 10778171c97995,9693 99915,-108380 -457,-104588 -68414,2581 -67690,97854 457,104588z"/>
  <path class="fil3" d="M12974127 10488890l-9330 -78547c-39699,-10401 55920,-38314 -59289,-6247 -54237,15090 -12996,850 -43537,44561 45945,77131 18771,62860 112156,40233z"/>
  <path class="fil3" d="M4814685 8189684c-89294,30084 -46448,-20219 -63300,-44624 57589,-46574 -61349,-33640 69217,-39840 31,63 81080,55150 -5917,84464zm-58249 -80955c-65488,65834 19070,162429 91135,90584 52978,-52805 5161,-187399 -91135,-90584zm-5051 36331c16852,24405 -25994,74708 63300,44624 86997,-29314 5948,-84401 5917,-84464 -130566,6200 -11628,-6734 -69217,39840z"/>
  <path class="fil3" d="M11140933 7477126c59414,44969 77304,84353 118781,1841 -46921,-33688 31752,-27174 -52931,-22706 -16506,866 -55858,10842 -65850,20865z"/>
  <path class="fil3" d="M5727388 9218681c-234886,-54914 -217751,173946 -45961,269062 99034,54835 239056,112251 355508,98373 -127639,-27063 -580482,-116987 -339506,-324275 62781,-54017 20392,4170 67549,-62608 93889,124681 344368,22579 410532,293152 -10400,10149 -65912,51594 -67423,53057 -57777,56031 -30965,18567 -53356,80860 153948,-73008 142776,-598 223117,-158259 -78972,-279148 -321962,-162680 -420287,-353258 178446,-39808 235925,114454 467806,-21336 90332,-89797 65896,-324180 -109891,-367167 190515,226799 -59744,489724 -252084,371573 -108506,-66668 -140322,-196824 -84212,-293561 49706,-85738 141973,-136309 245633,-110064 14759,3729 56975,38660 64607,28999l-3714 -30903c-471189,-110976 -510069,159282 -323929,366539 -38455,10227 -68540,19479 -119299,39509l-15090 120307zm570884 -491140c107640,30855 80828,43285 171067,91764l41413 -103502c-75605,-20408 -118796,-31753 -212480,11738z"/>
 </g>
</svg>
