<?xml version="1.0" encoding="UTF-8"?>
<!DOCTYPE svg PUBLIC "-//W3C//DTD SVG 1.0//EN" "http://www.w3.org/TR/2001/REC-SVG-20010904/DTD/svg10.dtd">
<!-- Creator: CorelDRAW X7 -->
<svg xmlns="http://www.w3.org/2000/svg" xml:space="preserve" width="1057px" height="1056px" version="1.0" style="shape-rendering:geometricPrecision; text-rendering:geometricPrecision; image-rendering:optimizeQuality; fill-rule:evenodd; clip-rule:evenodd"
viewBox="0 0 10922432 10909838"
 xmlns:xlink="http://www.w3.org/1999/xlink">
 <defs>
  <style type="text/css">
   <![CDATA[
    .fil0 {fill:#FEFEFE}
   ]]>
  </style>
 </defs>
 <g id="Layer_x0020_1">
  <metadata id="CorelCorpID_0Corel-Layer"/>
  <g id="_1609268734576">
   <path class="fil0" d="M4444863 1471126c-56857,-600413 385590,-1074943 914732,-1123478 594323,-54502 1070270,390008 1119085,914952 55685,598851 -387787,1067829 -915441,1118926 -594871,57589 -1069109,-390179 -1118376,-910400zm844488 -1458727c-694418,92321 -1288180,717568 -1179969,1536843 90344,683959 726306,1273925 1536660,1167326 680054,-89466 1274487,-723793 1167484,-1536551 -89514,-679944 -724036,-1273986 -1524175,-1167618z"/>
   <path class="fil0" d="M8193112 9051426c197957,-41420 718911,-15291 954919,-15291 542530,0 1125589,-109212 1366515,592907 182776,532657 -89368,1220339 195309,1275719 178126,34671 208196,-114032 207671,-269983 -964,-281919 24615,-689037 -32376,-951332 -103781,-477569 -477387,-909997 -976386,-978655 -277733,-38210 -1680506,-31315 -1905274,38771 -429145,133814 -792890,582375 -833224,1127187 -10056,135853 -23943,872752 20136,954065 65791,121379 249860,103317 299517,-13961 33573,-79312 17366,-371177 17366,-475019 0,-489443 13558,-1143748 685827,-1284408z"/>
   <path class="fil0" d="M1033145 9051426c197957,-41420 718899,-15291 954907,-15291 530583,0 1126614,-110200 1366552,592882 182251,534012 -89063,1220815 195224,1275769 178394,34475 208257,-114106 207732,-270008 -952,-280357 24737,-691148 -32279,-951283 -105001,-479095 -474763,-909436 -976483,-978680 -274133,-37844 -1686571,-30961 -1905177,39784 -422677,136755 -791950,567853 -833321,1126150 -10056,135828 -23932,872764 20136,954065 65791,121367 249896,103317 299541,-13961 106380,-251287 -266798,-1556479 703168,-1759427z"/>
   <path class="fil0" d="M8920468 6837763c783578,-163665 991335,1001659 251726,1160430 -781125,167692 -1019489,-1000085 -251726,-1160430zm-805509 727856c185973,1202729 2036892,948512 1853994,-291718 -178626,-1211321 -2047143,-957531 -1853994,291718z"/>
   <path class="fil0" d="M5340643 6837921c792646,-166410 980205,1004528 251568,1160284 -773437,165349 -1027861,-997290 -251568,-1160284zm-811708 685070c121561,1192087 1989407,1057199 1865417,-209526 -117730,-1202619 -1994740,-1058505 -1865417,209526z"/>
   <path class="fil0" d="M9425044 5730419c-195053,0 -232335,50902 -229589,-145689 1293,-92236 -37527,-315869 59115,-315869 589270,0 480010,-59738 485319,315869 2794,197738 -20466,145689 -314845,145689zm-526177 -534037c-7188,118584 30631,427742 -33560,508372 -54808,47753 -300225,27373 -377877,25665 5699,37392 36830,98862 -12766,158954 -46081,55844 -66901,32095 -123367,142478l2005821 7396c51670,11325 16243,-2392 42627,19355l25177 400759c-3649,92260 -7481,78006 -25177,98753 -48839,40260 4699,16341 -78848,25127 -20246,2124 -82949,464 -107222,391 -84487,-256 -114996,9848 -181519,-21894l10764 1892 -14291 16927 12778 34597c31510,83986 123465,183008 168497,288363 558395,14632 535671,-166582 536648,-680408 1049,-556723 -184118,-492922 -678968,-514083 -20137,-364734 76920,-741623 -343573,-764273 -222254,-11972 -843120,-72112 -825144,251629z"/>
   <path class="fil0" d="M1295160 7522991c-137048,-791218 1047094,-971064 1173464,-206463 129372,782871 -1042506,962583 -1173464,206463zm-340168 42628c185851,1202350 2036978,949013 1853995,-291718 -178627,-1211272 -2047094,-957653 -1853995,291718z"/>
   <path class="fil0" d="M1412706 5730419c-196053,0 -232383,50413 -229467,-145677 1367,-91711 -36721,-315881 58993,-315881 591992,0 480059,-58835 485295,315869 2770,197872 -20637,145689 -314821,145689zm-531119 884735l-1513 -51524 10751 -1892c-66596,31779 -117949,21918 -203461,21979 -168741,98 -188133,305 -189073,-145554 -1440,-220778 -31876,-374484 67585,-398916l1676857 -3259c-11130,-180652 19940,-179517 79556,-297808 -61824,-8750 -85182,-4710 -143882,-6199 -32865,-842 -45362,720 -78129,-6859 -129616,-29972 -65375,-332503 -76151,-528740 15950,-302884 -556613,-274254 -845489,-250445 -398574,32840 -303702,409180 -323240,763089 -516500,22088 -679652,-42872 -678932,535403 623,500000 -2135,673207 536611,659088 45032,-105343 136866,-204413 168510,-288363z"/>
   <path class="fil0" d="M7168790 1449013c788460,12020 1592406,3795 2384198,720 256193,-1013 340204,-15536 341376,254814 707,165214 -19087,1095580 16853,1178956 63874,148178 303019,137011 323338,-69562 28338,-288325 12021,-889714 110,-1194723 -15791,-404920 -279112,-511496 -681762,-510580 -584157,1330 -1921079,-26678 -2403298,3478l19185 336897z"/>
   <path class="fil0" d="M3756571 1449220l16183 -337141c-471029,-29460 -1810427,-2550 -2381368,-3417 -402101,-598 -678382,87184 -702203,489468 -19209,324413 -20393,871324 -1892,1195517 12509,219020 240377,244331 317481,103707 45983,-83864 24163,-1007920 23968,-1171206 -318,-273206 54136,-277770 319836,-276525 798943,3734 1609882,10873 2407995,-403z"/>
   <path class="fil0" d="M5424471 3689060c203583,-122025 273644,537283 80105,639782 -194992,103244 -320971,-495424 -80105,-639782zm-170389 924252c66205,46313 56955,39918 54502,224243l-2978 842902c154219,29813 167179,157904 165202,345707l268190 10142c-2795,-118987 -12314,-220595 49486,-293989 -149203,-39296 -179273,35306 -176002,-156440l158 -855812c4491,-83352 2832,-82095 56272,-116753 388470,-51037 470247,-1287753 -207415,-1287753 -678065,0 -595116,1236814 -207415,1287753z"/>
   <path class="fil0" d="M2822386 5366991l334932 3698c41371,-806144 -216445,-1844524 681250,-2325694 397733,-213200 645115,-106099 864490,-157331 -72161,-21137 -313100,-199482 -359315,-235361 -86866,-67438 -57602,-98253 -199568,-71734 -86342,16133 -176491,42738 -253667,69415 -338130,116912 -549999,330087 -720254,535244 -189219,228015 -324339,538479 -347733,906886 -22211,349637 -21967,925142 -135,1274877z"/>
   <path class="fil0" d="M6219765 2887835c220070,50560 453211,-55564 850528,149826 914122,472553 655366,1553757 695370,2331160l335445 1233 2782 -1150021c-110,-1299492 -1289766,-1744746 -1457128,-1627016 -105782,74406 -306607,258109 -426997,294818z"/>
   <path class="fil0" d="M4022662 9492640c110896,-77469 163054,-327097 528240,-429108 165336,-46191 1656037,-46142 1821178,12 377169,105392 492775,450575 512887,416832 2490,-4162 9995,8518 15364,12264 37649,-143186 86708,-224866 140063,-350125 -81497,-154610 -358375,-355971 -607979,-417051 -214359,-52440 -1741353,-52306 -1958885,4259 -240512,62544 -511801,262673 -590930,412792 53184,124869 102572,207561 140062,350125z"/>
   <path class="fil0" d="M7585719 5851553c65522,-25884 29984,-20087 103854,-2075l18659 186779 -144346 -2636c854,-27361 -793,-63460 1111,-88880 622,-8177 2514,-33560 3819,-41114 8970,-51952 10032,-37149 16903,-52074zm-307755 -3209l113263 -659 9532 189841 -158051 -3368c-281,-81143 2794,-123465 35256,-185814zm-410046 -117669c49609,38783 30827,67304 32047,151436 1343,93213 24164,114349 -32047,151815 -45691,-35720 -37624,-164324 -29936,-237985 10337,-99302 -13631,-32035 29936,-65266zm-404774 322972l3936601 4955 0 499512 -367589 3624c66523,31742 97032,21638 181519,21894 24273,73 86976,1733 107222,-391 83547,-8786 30009,15133 78848,-25127 17696,-20747 21528,-6493 25177,-98753l-25177 -400759c-26384,-21747 9043,-8030 -42627,-19355l-2005821 -7396c56466,-110383 77286,-86634 123367,-142478 49596,-60092 18465,-121562 12766,-158954 77652,1708 323069,22088 377877,-25665 64191,-80630 26372,-389788 33560,-508372 -34915,46997 -30192,34391 -33707,130385l147 377987 -1166215 8030c4442,4955 11007,10105 14644,13546l60555 60848c14461,19270 22357,31571 32316,68756 41505,155086 3636,161724 -22382,177992 -47314,-39796 -23785,-146079 -66620,-233275 -92639,-22894 -93896,-22662 -185375,1562 -21503,85097 3075,188841 -46338,232738 -63057,-34280 -18489,-44422 -44214,-147763 -35281,-141722 -201081,-122892 -235215,-7151 -30668,103976 29447,124368 -61532,152852 -19452,-46741 -20331,-93127 -6639,-161529 48217,-241073 243026,-98167 345818,-112140l86903 -47754 -1934063 -5369c-2514,-189744 -805,-379879 -805,-569757 0,-136780 -26214,-419809 32767,-523028 -53440,34658 -51781,33401 -56272,116753l-158 855812c-3271,191746 26799,117144 176002,156440 -61800,73394 -52281,175002 -49486,293989l-268190 -10142c1977,-187803 -10983,-315894 -165202,-345707l2978 -842902c2453,-184325 11703,-177930 -54502,-224243 51231,89661 33438,144126 32828,267213 -464,92346 -73,184777 -73,277123 0,187425 -2563,376620 2587,563435 38161,31315 92614,64509 114190,111152 43604,94310 2405,189707 1367,186339 -878,-2856 -4186,11007 -7407,15865 -71453,-31706 -27129,17793 -44971,-105160 -7884,-54417 -10923,-74333 -25274,-122929 -312404,-76188 -164421,110530 -228088,228601 -78532,-32169 -22333,-35403 -54856,-161968 -34574,-134595 -201204,-96349 -234142,-3173l-25676 148141c-598,-2721 -2368,11045 -4979,15975 -36953,-15218 -70001,-23004 -38930,-168766 44617,-209294 213785,-118779 321215,-111347l216116 -45666 -554453 573c25396,67329 -3649,32011 -29265,134669 -26750,107271 3356,127553 -39845,211637l1701960 -2392 -20112 -216494 269215 -1880c123538,-98447 -51769,-102352 186498,-104879l-4345 305558c-11069,-317 -77201,-1098 -86232,-4174 -118120,-40175 12826,-133253 -170205,-105867 7334,36306 54331,45324 77115,85133 -30497,23065 19673,21418 -34890,8006 -91809,-22553 82570,18623 -43739,-25909 -28886,-10190 -7029,-73100 -66547,61519zm3579776 509983c-46863,17866 -61226,6578 -14291,16927 -17244,41749 -28813,34597 12778,34597l-12778 -34597 14291 -16927zm-4138268 -710088c24724,-4356 115996,-17671 133460,-26250 93688,-46020 7078,-61543 105282,-97130 59090,68305 32657,212126 34756,302727l-276391 2087 2893 -181434zm-597496 177797l-139855 2575c4039,-94689 -28740,-191477 60518,-197628 99070,-6822 77763,106319 79337,195053zm-334224 -183508c43787,71966 27580,85451 36404,182983l-160614 5589c1123,-131507 -23456,-216348 124210,-188572zm3109626 187901c-82949,-57284 -15389,-207195 46020,-256437 87965,-70526 241757,-55051 327097,-9361 8799,101707 -112262,227466 -194369,225611 -8384,-92285 68073,-59713 105502,-203790 -95702,-9324 -161017,-23602 -214664,53074 -29509,42200 -26544,58358 -35184,102853 -18830,97044 37539,41774 -34402,88050zm-1832613 -781c-51598,-63752 -27654,-184984 -28032,-305570 108479,1794 302274,-32669 382014,24933 -58835,61665 -154390,24566 -316541,39003 0,46081 4796,112701 2648,155207 -6102,121305 12704,56870 -40089,86427zm-447500 -2319c-28190,-75712 -21076,-222230 61568,-278025 27398,-18514 13522,-13888 45789,-21967 103329,-25884 138000,21137 138939,21674 -98496,74174 -143711,-5883 -185301,85768 -52611,115911 47387,162358 -60995,192550zm1998426 -302213l270264 27958 -60469 99437c-18867,57748 -12961,115630 -6115,176112l-138207 1867c-574,-160833 -11874,-193551 -65473,-305374zm-719338 306094l-129934 -1635 -1745 -303947 193540 159c-66462,128274 -68659,127834 -61861,305423z"/>
   <path class="fil0" d="M6429364 6561897c62496,124735 140270,201582 201484,343231l1241866 -1026c59286,-137511 162896,-235886 200801,-340240l-1644151 -1965z"/>
   <path class="fil0" d="M2849479 6561897c62129,125149 139952,201069 200788,343231l1242550 -855c59298,-139147 162456,-235056 193771,-340399l-1637109 -1977z"/>
   <path class="fil0" d="M2712577 6030558c-35330,-59408 -16841,-262954 0,-300664 51488,19184 53953,-13864 52098,152339 -1953,175088 -16134,136426 -52098,148325zm1444912 2331c-7481,-103500 -6321,-197189 110603,-197359 115008,-159 117595,91955 123795,197371l-234398 -12zm-102414 2331c-141612,-315724 409461,-458532 444266,-107650l-18086 106869c-55295,-23285 -22943,341 -43812,-64509 -6919,-21516 -2465,-35135 -16048,-69745 -17756,-45239 -50841,-66278 -69134,-113080 -348795,-10532 -180408,216934 -297186,248115zm-617973 -1819c-59091,-22613 -31584,52916 -49609,-65534 -11605,-76225 46606,-165727 99668,-202973 110408,-77494 232238,-24407 317884,24286 -21845,91760 -151693,195638 -197469,212833 -43836,-125943 60982,-76212 88343,-204559 -94347,-24578 -168583,-10227 -210539,50999 -33561,48998 -25164,146104 -48278,184948zm-1129397 -1806c-26079,-59957 -54197,-327500 242782,-297039 -19246,59847 -100706,50999 -157258,127309 -101865,137463 42225,154634 -85524,169730zm1382515 2331c52207,-141088 218520,-124551 126345,-304215l249469 7432c-55917,95470 -85682,138903 -75395,297527l-300419 -744zm-602341 2062c1660,-53318 -4845,-122916 19502,-164726 41309,-70952 15974,-10715 89197,-60384 151717,-102926 -44434,-66230 230065,-84596 -32169,71416 2782,-3747 -26824,50609 -58248,106965 -67499,125832 -54270,257328l-257670 1769zm-2197054 525750l-368602 -3624 1013 -500915 1912218 -5590c-88270,-194149 97557,-211710 134571,-243111 54661,-46386 16402,-53830 75529,-78079 -1757,152815 21906,215872 -39418,322325l420285 2783c-4979,-3918 -11874,-9898 -14535,-12265l-34549 -33231c2063,-106234 -10837,-234544 102951,-268629 77885,-23321 44031,-19087 117754,-122 -32108,78678 -82399,18562 -133948,111274 -34476,62007 -25591,143577 -53074,202277l1655195 342 -116375 -24359c11337,-144395 -31461,-211393 -79544,-293671 53367,-6004 88501,-3197 139098,-5101l120756 -22821 -1757609 -195c67548,135132 -48021,-116363 -45861,326877l-107552 -4564c-22382,-82766 -7884,-256218 21198,-322033l-782651 -4552 -33548 -508372c10776,196237 -53465,498768 76151,528740 32767,7579 45264,6017 78129,6859 58700,1489 82058,-2551 143882,6199 -59616,118291 -90686,117156 -79556,297808l-1676857 3259c-99461,24432 -69025,178138 -67585,398916 940,145859 20332,145652 189073,145554 85512,-61 136865,9800 203461,-21979zm-10751 1892l1513 51524c79288,-82424 -8311,79727 19367,-22321l-20880 -29203z"/>
   <path class="fil0" d="M6356386 6052634l106758 1013c59518,-134619 37661,-71709 66547,-61519 126309,44532 -48070,3356 43739,25909 54563,13412 4393,15059 34890,-8006 -22784,-39809 -69781,-48827 -77115,-85133 183031,-27386 52085,65692 170205,105867 9031,3076 75163,3857 86232,4174l4345 -305558c-238267,2527 -62960,6432 -186498,104879l-269215 1880 20112 216494z"/>
   <path class="fil0" d="M7699092 5712784l-128079 -1318 -86903 47754c-102792,13973 -297601,-128933 -345818,112140 -13692,68402 -12813,114788 6639,161529 90979,-28484 30864,-48876 61532,-152852 34134,-115741 199934,-134571 235215,7151 25725,103341 -18843,113483 44214,147763 49413,-43897 24835,-147641 46338,-232738 91479,-24224 92736,-24456 185375,-1562 42835,87196 19306,193479 66620,233275 26018,-16268 63887,-22906 22382,-177992 -9959,-37185 -17855,-49486 -32316,-68756l-60555 -60848c-3637,-3441 -10202,-8591 -14644,-13546z"/>
   <path class="fil0" d="M5289424 5721083l-11435 -12936 -216116 45666c-107430,-7432 -276598,-97947 -321215,111347 -31071,145762 1977,153548 38930,168766 2611,-4930 4381,-18696 4979,-15975l25676 -148141c32938,-93176 199568,-131422 234142,3173 32523,126565 -23676,129799 54856,161968 63667,-118071 -84316,-304789 228088,-228601 14351,48596 17390,68512 25274,122929 17842,122953 -26482,73454 44971,105160 3221,-4858 6529,-18721 7407,-15865 1038,3368 42237,-92029 -1367,-186339 -21576,-46643 -76029,-79837 -114190,-111152z"/>
   <path class="fil0" d="M3087879 6035988l257670 -1769c-13229,-131496 -3978,-150363 54270,-257328 29606,-54356 -5345,20807 26824,-50609 -274499,18366 -78348,-18330 -230065,84596 -73223,49669 -47888,-10568 -89197,60384 -24347,41810 -17842,111408 -19502,164726z"/>
   <path class="fil0" d="M3690220 6033926l300419 744c-10287,-158624 19478,-202057 75395,-297527l-249469 -7432c92175,179664 -74138,163127 -126345,304215z"/>
   <path class="fil0" d="M2972541 5709026l-132215 280c-29082,65815 -43580,239267 -21198,322033l107552 4564c-2160,-443240 113409,-191745 45861,-326877zm53880 346501l-15401 -696c27483,-58700 18598,-140270 53074,-202277 51549,-92712 101840,-32596 133948,-111274 -73723,-18965 -39869,-23199 -117754,122 -113788,34085 -100888,162395 -102951,268629l34549 33231c2661,2367 9556,8347 14535,12265z"/>
   <path class="fil0" d="M5901759 6034976l276391 -2087c-2099,-90601 24334,-234422 -34756,-302727 -98204,35587 -11594,51110 -105282,97130 -17464,8579 -108736,21894 -133460,26250l-2893 181434z"/>
   <path class="fil0" d="M4666215 6055173l-11789 -147c43201,-84084 13095,-104366 39845,-211637 25616,-102658 54661,-67340 29265,-134669l6614 501 -120756 22821c-50597,1904 -85731,-903 -139098,5101 48083,82278 90881,149276 79544,293671l116375 24359z"/>
   <path class="fil0" d="M4055075 6035220c116778,-31181 -51609,-258647 297186,-248115 18293,46802 51378,67841 69134,113080 13583,34610 9129,48229 16048,69745 20869,64850 -11483,41224 43812,64509l18086 -106869c-34805,-350882 -585878,-208074 -444266,107650z"/>
   <path class="fil0" d="M3437102 6033401c23114,-38844 14717,-135950 48278,-184948 41956,-61226 116192,-75577 210539,-50999 -27361,128347 -132179,78616 -88343,204559 45776,-17195 175624,-121073 197469,-212833 -85646,-48693 -207476,-101780 -317884,-24286 -53062,37246 -111273,126748 -99668,202973 18025,118450 -9482,42921 49609,65534z"/>
   <path class="fil0" d="M2435454 6051609l170682 1135c61324,-106453 37661,-169510 39418,-322325 -59127,24249 -20868,31693 -75529,78079 -37014,31401 -222841,48962 -134571,243111z"/>
   <path class="fil0" d="M8082558 6035732c71941,-46276 15572,8994 34402,-88050 8640,-44495 5675,-60653 35184,-102853 53647,-76676 118962,-62398 214664,-53074 -37429,144077 -113886,111505 -105502,203790 82107,1855 203168,-123904 194369,-225611 -85340,-45690 -239132,-61165 -327097,9361 -61409,49242 -128969,199153 -46020,256437z"/>
   <path class="fil0" d="M7800871 5730419c53599,111823 64899,144541 65473,305374l138207 -1867c-6846,-60482 -12752,-118364 6115,-176112l60469 -99437 -270264 -27958z"/>
   <path class="fil0" d="M7081533 6036513c-6798,-177589 -4601,-177149 61861,-305423l-193540 -159 1745 303947 129934 1635z"/>
   <path class="fil0" d="M4157489 6032889l234398 12c-6200,-105416 -8787,-197530 -123795,-197371 -116924,170 -118084,93859 -110603,197359z"/>
   <path class="fil0" d="M6249945 6034951c52793,-29557 33987,34878 40089,-86427 2148,-42506 -2648,-109126 -2648,-155207 162151,-14437 257706,22662 316541,-39003 -79740,-57602 -273535,-23139 -382014,-24933 378,120586 -23566,241818 28032,305570z"/>
   <path class="fil0" d="M9216543 5286861l505345 4015 -2111 419565 -506944 -3881 3710 -419699zm208501 443558c294379,0 317639,52049 314845,-145689 -5309,-375607 103951,-315869 -485319,-315869 -96642,0 -57822,223633 -59115,315869 -2746,196591 34536,145689 229589,145689z"/>
   <path class="fil0" d="M1204376 5286898l505528 3588 -2404 419992 -506736 -4235 3612 -419345zm208330 443521c294184,0 317591,52183 314821,-145689 -5236,-374704 106697,-315869 -485295,-315869 -95714,0 -57626,224170 -58993,315881 -2916,196090 33414,145677 229467,145677z"/>
   <path class="fil0" d="M9230504 5307424l474592 -1061 -696 379170 -477191 3063 3295 -381172zm-17671 399136l506944 3881 2111 -419565 -505345 -4015 -3710 419699z"/>
   <path class="fil0" d="M1218691 5305606l474067 1648 610 378889 -477301 2368 2624 -382905zm-17927 400637l506736 4235 2404 -419992 -505528 -3588 -3612 419345z"/>
   <path class="fil0" d="M4972932 5847831c-147666,-27776 -123087,57065 -124210,188572l160614 -5589c-8824,-97532 7383,-111017 -36404,-182983z"/>
   <path class="fil0" d="M2307705 6031595c127749,-15096 -16341,-32267 85524,-169730 56552,-76310 138012,-67462 157258,-127309 -296979,-30461 -268861,237082 -242782,297039z"/>
   <path class="fil0" d="M7277964 5848344c-32462,62349 -35537,104671 -35256,185814l158051 3368 -9532 -189841 -113263 659z"/>
   <path class="fil0" d="M5307156 6031339c-1574,-88734 19733,-201875 -79337,-195053 -89258,6151 -56479,102939 -60518,197628l139855 -2575z"/>
   <path class="fil0" d="M7564997 5944741c-1904,25420 -257,61519 -1111,88880l144346 2636 -18659 -186779c-73870,-18012 -38332,-23809 -103854,2075 -6871,14925 -7933,122 -16903,52074 -1305,7554 -3197,32937 -3819,41114z"/>
   <path class="fil0" d="M5802445 6032632c108382,-30192 8384,-76639 60995,-192550 41590,-91651 86805,-11594 185301,-85768 -939,-537 -35610,-47558 -138939,-21674 -32267,8079 -18391,3453 -45789,21967 -82644,55795 -89758,202313 -61568,278025z"/>
   <path class="fil0" d="M2712577 6030558c35964,-11899 50145,26763 52098,-148325 1855,-166203 -610,-133155 -52098,-152339 -16841,37710 -35330,241256 0,300664z"/>
   <path class="fil0" d="M6867918 5730675c-43567,33231 -19599,-34036 -29936,65266 -7688,73661 -15755,202265 29936,237985 56211,-37466 33390,-58602 32047,-151815 -1220,-84132 17562,-112653 -32047,-151436z"/>
  </g>
 </g>
</svg>
