<?xml version="1.0" encoding="UTF-8"?>
<!DOCTYPE svg PUBLIC "-//W3C//DTD SVG 1.0//EN" "http://www.w3.org/TR/2001/REC-SVG-20010904/DTD/svg10.dtd">
<!-- Creator: CorelDRAW X7 -->
<svg xmlns="http://www.w3.org/2000/svg" xml:space="preserve" width="826px" height="1180px" version="1.0" style="shape-rendering:geometricPrecision; text-rendering:geometricPrecision; image-rendering:optimizeQuality; fill-rule:evenodd; clip-rule:evenodd"
viewBox="0 0 28499353 40713372"
 xmlns:xlink="http://www.w3.org/1999/xlink">
 <defs>
  <style type="text/css">
   <![CDATA[
    .fil0 {fill:#FEFEFE}
   ]]>
  </style>
 </defs>
 <g id="Layer_x0020_1">
  <metadata id="CorelCorpID_0Corel-Layer"/>
  <g id="_1238780544768">
   <path class="fil0" d="M26463676 16285333l-6106990 0 0 1357131 6106990 0c374760,326 678219,303826 678545,678545l0 20356646c-326,374760 -303826,678219 -678545,678586l-24427999 0c-374720,-367 -678220,-303866 -678546,-678586l0 -20356646c326,-374760 303826,-678219 678546,-678545l6107030 0 0 -1357131 -6107030 0c-1123833,1344 -2034332,911843 -2035677,2035676l0 20356687c1345,1123873 911844,2034373 2035677,2035676l24427999 -40c1123874,-1304 2034373,-911803 2035677,-2035677l0 -20356646c-1304,-1123873 -911803,-2034373 -2035677,-2035676l0 0zm0 0z"/>
   <path class="fil0" d="M22392363 18999555c-1498919,0 -2714222,1215302 -2714222,2714263 0,1498919 1215303,2714222 2714222,2714222 1498919,0 2714222,-1215303 2714222,-2714222 -1670,-1498268 -1215954,-2712593 -2714222,-2714263zm0 4071353c-749439,0 -1357091,-607651 -1357091,-1357090 0,-749480 607652,-1357132 1357091,-1357132 749439,0 1357091,607652 1357091,1357132 -978,749113 -607978,1356112 -1357091,1357090zm0 0z"/>
   <path class="fil0" d="M4551110 31014745l1555920 -1555919 1555920 1555919 959514 -959513 -1555920 -1555920 1555920 -1555920 -959514 -959514 -1555920 1555920 -1555920 -1555920 -959513 959514 1555920 1555920 -1555920 1555920 959513 959513zm0 0z"/>
   <path class="fil0" d="M4551110 24229211l1555920 -1555920 1555920 1555920 959514 -959514 -1555920 -1555920 1555920 -1555920 -959514 -959514 -1555920 1555920 -1555920 -1555920 -959513 959514 1555920 1555920 -1555920 1555920 959513 959514zm0 0z"/>
   <path class="fil0" d="M15805617 32769454l-1555920 1555920 -1555920 -1555920 -959514 959514 1555920 1555919 -1555920 1555920 959514 959514 1555920 -1555920 1555920 1555920 959513 -959514 -1555920 -1555920 1555920 -1555919 -959513 -959514zm0 0z"/>
   <path class="fil0" d="M23948242 32769454l-1555920 1555920 -1555879 -1555920 -959554 959514 1555919 1555919 -1555919 1555920 959554 959514 1555879 -1555920 1555920 1555920 959514 -959514 -1555879 -1555920 1555879 -1555919 -959514 -959514zm0 0z"/>
   <path class="fil0" d="M23948242 25983919l-1555920 1555920 -1555879 -1555920 -959554 959514 1555919 1555920 -1555919 1555919 959554 959514 1555879 -1555920 1555920 1555920 959514 -959514 -1555879 -1555919 1555879 -1555920 -959514 -959514zm0 0z"/>
   <path class="fil0" d="M6107030 37999110c1498879,0 2714222,-1215262 2714222,-2714223 0,-1498919 -1215302,-2714222 -2714222,-2714222 -1498960,0 -2714222,1215303 -2714222,2714222 1630,1498268 1215955,2712593 2714222,2714223zm0 -4071354c749440,0 1357091,607651 1357091,1357131 0,749440 -607651,1357091 -1357091,1357091 -749480,0 -1357131,-607651 -1357131,-1357091 1018,-749113 608018,-1356112 1357131,-1357131zm0 0z"/>
   <path class="fil0" d="M14249697 25785130c-1498920,0 -2714222,1215303 -2714222,2714223 0,1498919 1215261,2714222 2714222,2714222 1498919,0 2714222,-1215303 2714222,-2714222 -1671,-1498268 -1215955,-2712552 -2714222,-2714223zm0 4071313c-749480,0 -1357091,-607651 -1357091,-1357090 0,-749440 607611,-1357091 1357091,-1357091 749439,0 1357090,607651 1357090,1357091 -978,749113 -607977,1356112 -1357090,1357090zm0 0z"/>
   <path class="fil0" d="M10178343 16426143l0 3251957c2648,859773 546047,1624818 1357132,1910431l0 803791c1303,1123874 911802,2034373 2035676,2035677l1357091 0c1123833,-1304 2034332,-911803 2035677,-2035677l0 -803465c811084,-285899 1354442,-1050943 1357090,-1910716l0 -3251957c2769552,-1802420 4024295,-5211444 3084338,-8379265 -939997,-3168107 -3851337,-5340968 -7155650,-5340968 -3304313,0 -6215694,2172861 -7155651,5340968 -939997,3167821 314745,6576845 3084297,8379265l0 -41zm5428444 5966220c-326,374720 -303825,678219 -678545,678545l-1357091 0c-374760,-326 -678219,-303825 -678545,-678545l0 -678545 2714181 -41 0 678586zm1357132 -2714222c-326,374720 -303826,678179 -678546,678545l-4071353 0c-374761,-366 -678220,-303866 -678545,-678545l0 -2554222c1743422,691502 3684981,691502 5428444,0l0 2554222zm-2714222 -15606787c3372884,0 6106989,2734105 6106989,6106989 0,3372885 -2734105,6106990 -6106989,6106990 -3372885,0 -6106990,-2734105 -6106990,-6106990 3626,-3371214 2735735,-6103323 6106990,-6106989zm0 0z"/>
   <path class="fil0" d="M13571151 0l1357091 0 0 1357091 -1357091 40 0 -1357131zm0 0z"/>
   <path class="fil0" d="M6572894 3461054l959513 -959555 959514 959555 -959514 959514 -959513 -959514zm0 0z"/>
   <path class="fil0" d="M4071354 9499798l1357090 0 0 1357090 -1357090 0 0 -1357090zm0 0z"/>
   <path class="fil0" d="M23070908 9499798l1357091 0 0 1357090 -1357091 0 0 -1357090zm0 0z"/>
   <path class="fil0" d="M20007472 3461054l959514 -959555 959514 959555 -959514 959514 -959514 -959514zm0 0z"/>
  </g>
 </g>
</svg>
