<?xml version="1.0" encoding="UTF-8"?>
<!DOCTYPE svg PUBLIC "-//W3C//DTD SVG 1.0//EN" "http://www.w3.org/TR/2001/REC-SVG-20010904/DTD/svg10.dtd">
<!-- Creator: CorelDRAW X7 -->
<svg xmlns="http://www.w3.org/2000/svg" xml:space="preserve" width="1355px" height="817px" version="1.0" style="shape-rendering:geometricPrecision; text-rendering:geometricPrecision; image-rendering:optimizeQuality; fill-rule:evenodd; clip-rule:evenodd"
viewBox="0 0 34138090 20580174"
 xmlns:xlink="http://www.w3.org/1999/xlink">
 <defs>
  <style type="text/css">
   <![CDATA[
    .str0 {stroke:#FEFEFE;stroke-width:734800;stroke-linecap:round;stroke-linejoin:round}
    .fil0 {fill:none}
   ]]>
  </style>
 </defs>
 <g id="Layer_x0020_1">
  <metadata id="CorelCorpID_0Corel-Layer"/>
  <g id="_1238747490608">
   <g>
    <path class="fil0 str0" d="M367430 13022601c9552,498059 213590,2710047 1170699,1950758 203860,-161755 1742405,-2007444 1988280,-2336191l988889 -1171442c141550,-152084 386295,-481634 508058,-545967 -3750,1865506 14223,3730745 -1667,5596252 -3481,409386 -49901,955918 79390,1329388 327765,946665 1101039,705312 2091088,705312 694778,0 3967724,42670 4182832,-14967 833085,-223231 708257,-1607967 704508,-2104509 -14015,-1850777 13033,-3702269 -2321,-5551885 275989,115067 837400,952288 1087352,1233752l1341678 1581275c335859,403733 1042212,1434220 1498642,1408362 335621,-18984 518383,-290004 720488,-402334l499071 2056125 3258127 -999392c-42819,-422717 -265009,-1164242 -377100,-1596749 -164909,-636366 -202253,-287861 519037,-1209471 212549,-271615 1611121,-1985037 1778589,-2073562 -3749,1865507 14253,3730745 -1666,5596282 -3482,409356 -49901,955918 79419,1329389 327765,946664 1101010,705311 2091059,705311 694778,0 3967724,42641 4182832,-14997 833084,-223201 708287,-1607966 704508,-2104479 -14015,-1850777 13033,-3702298 -2291,-5551915 142651,59483 351004,346838 495649,509903 158065,178210 341601,366775 464911,551799l2320330 2766555c1078961,1146655 1032601,-1414581 1032601,-2132420l-884296 -1024061c-74271,-104325 -77009,-116912 -167200,-215078l-2784111 -3318681c-345648,-449378 -716916,-1008914 -1191885,-1094196 -333210,-59810 -1081906,-18091 -1458114,-18181 -1017335,-119 -2034760,-6100 -3052066,5148 -464346,5148 -977997,-49960 -1345844,163898 -453842,263818 -449051,432268 -765776,759616l-2079662 2499433c-250458,286582 -430692,511867 -700134,785862l-1431542 -5823381 -3261907 1004570c139379,907178 505618,2077877 734235,3003563l645323 2615006c105040,384391 38594,289736 1071,347463 -75134,-159999 -610210,-801840 -750332,-953716l-3089172 -3692390c-261557,-301490 -380969,-646513 -1011949,-672282 -1087769,-44426 -2292211,-5207 -3391465,-1637 -1262676,4077 -2153071,-192671 -2776523,603248 -445570,568790 -1108687,1277018 -1547681,1843309 -267776,345410 -2905546,3559944 -3093962,3672304z"/>
   </g>
   <g>
    <path class="fil0 str0" d="M8241996 426109c-1513758,155923 -2779647,1537266 -2598580,3240780 160356,1508818 1499296,2787651 3224503,2606882 1501320,-157291 2755693,-1531493 2591201,-3227716 -147680,-1523132 -1509801,-2795835 -3217124,-2619946z"/>
   </g>
   <g>
    <path class="fil0 str0" d="M25621711 383706c-1513758,155953 -2779647,1537266 -2598581,3240810 160357,1508729 1499327,2787622 3224533,2606853 1501320,-157292 2755664,-1531464 2591201,-3227687 -147710,-1523102 -1509741,-2795865 -3217153,-2619976z"/>
   </g>
   <g>
    <path class="fil0 str0" d="M14388798 5305504l3267233 -1002427c-33030,-242365 -146431,-669783 -220226,-913992 -497405,-1645966 -2792443,-1617906 -3265031,-31066 -226921,761908 138992,1257825 218024,1947485z"/>
   </g>
   <g>
    <path class="fil0 str0" d="M20690243 16738200l-3163681 1007129c87542,178865 136194,172884 283130,318064l1949419 2149381 931132 -3474574z"/>
   </g>
  </g>
 </g>
</svg>
