<?xml version="1.0" encoding="UTF-8"?>
<!DOCTYPE svg PUBLIC "-//W3C//DTD SVG 1.0//EN" "http://www.w3.org/TR/2001/REC-SVG-20010904/DTD/svg10.dtd">
<!-- Creator: CorelDRAW X7 -->
<svg xmlns="http://www.w3.org/2000/svg" xml:space="preserve" width="1096px" height="1096px" version="1.0" style="shape-rendering:geometricPrecision; text-rendering:geometricPrecision; image-rendering:optimizeQuality; fill-rule:evenodd; clip-rule:evenodd"
viewBox="0 0 15376173 15376173"
 xmlns:xlink="http://www.w3.org/1999/xlink">
 <defs>
  <style type="text/css">
   <![CDATA[
    .str0 {stroke:#FEFEFE;stroke-width:409245;stroke-linecap:round;stroke-linejoin:round}
    .fil0 {fill:none}
   ]]>
  </style>
 </defs>
 <g id="Layer_x0020_1">
  <metadata id="CorelCorpID_0Corel-Layer"/>
  <g>
   <path class="fil0 str0" d="M5934163 1900086c0,459542 123549,733405 292325,1052362l-526397 759839c-176101,247993 -348058,499764 -534882,751337 -99767,134354 -158136,237005 -259544,383557 -241430,348887 -596648,791542 -783902,1145434 -1655921,-385795 -2663172,1233203 -2029136,2496833 180641,359991 274906,339407 450593,601785l-840564 2550380c-343634,1034099 -160357,410736 -855065,840398 -390899,241778 -599963,648106 -642952,1072614l0 332861c66953,666585 534865,1284048 1344687,1284048 542654,0 762755,-15512 1186534,-450461 419951,-431004 470663,-1016201 253197,-1573920 -115313,-295688 -189923,-282049 -328917,-489588 51557,-221245 868572,-2847030 1052362,-2981699 37769,453842 935442,2648556 935442,2981699 0,43669 -181304,209842 -233525,292656 -354637,562525 -270034,1482306 340319,1939131 203512,152319 422172,243120 641693,282182l513884 0c887746,-156031 1591984,-1097340 1059389,-2146372 -316769,-623910 -841923,-645868 -1023774,-730157 -164964,-76449 -105170,-17583 -184039,-225205l-997027 -3037035c724672,-485263 839123,-1609352 350793,-2338581l1578743 -2279914c692139,-975250 417845,-749630 948137,-720677 678152,37023 244661,-415377 1249444,1036668l1368551 1963923c-488329,729229 -373879,1853318 350793,2338581l-869516 2638363c-356561,1075946 -236194,360157 -895304,858629 -710634,537417 -831134,1487393 -265759,2158370 242707,288032 580689,444461 932079,483407l355466 0c524110,-57441 1016897,-366587 1206156,-881615 112976,-307422 119390,-581384 49420,-915604 -26036,-124361 -67053,-259080 -140387,-387353 -300661,-525916 -441561,141978 205037,-1798462 113473,-340534 449135,-1199825 475170,-1512634 205252,150397 457123,1166316 548240,1439565 165494,496334 391992,1060848 504123,1542134 -116456,173896 -467730,520132 -467730,1052362 0,744592 613420,1461607 1286219,1461607 1169166,0 1637011,-467846 1637011,-1637012 0,-446069 -370895,-884233 -642951,-1052511 -847492,-524159 -382878,577026 -1278927,-2112017 -135382,-406245 -322371,-873875 -416702,-1278761 192756,-287866 643117,-574125 643117,-1403155 0,-1127569 -984116,-1983794 -2221661,-1695463l-2104724 -3040167c851269,-1608789 -374443,-2747826 -1227751,-2747826 -590350,0 -1132889,39493 -1530648,515608 -241497,289077 -457140,665938 -457140,1179856z"/>
  </g>
 </g>
</svg>
